<svg xmlns="http://www.w3.org/2000/svg" width="39.728" height="27.027" viewBox="0 0 39.728 27.027">
  <path id="Trazado_664607" data-name="Trazado 664607" d="M19.494-10.876q0,5.456-2.258,8.347A7.883,7.883,0,0,1,10.623.361,7.938,7.938,0,0,1,4.047-2.475Q1.771-5.312,1.716-10.6v-4.842q0-5.51,2.285-8.365a7.942,7.942,0,0,1,6.585-2.854,7.949,7.949,0,0,1,6.576,2.827q2.276,2.827,2.331,8.121ZM14.272-16.2a9.632,9.632,0,0,0-.894-4.765,3.022,3.022,0,0,0-2.791-1.492,2.968,2.968,0,0,0-2.719,1.42,9.014,9.014,0,0,0-.93,4.44v6.4a10.111,10.111,0,0,0,.876,4.783,2.982,2.982,0,0,0,2.809,1.564,2.932,2.932,0,0,0,2.764-1.5,9.869,9.869,0,0,0,.885-4.593ZM38.463-9.9h2.981v4.209H38.463V0H33.242V-5.691H22.457l-.235-3.288L33.188-26.3h5.275Zm-11.039,0h5.817v-9.286l-.343.6Z" transform="translate(-1.716 26.666)" fill="#cee284"/>
</svg>
