<svg id="Grupo_1012975" data-name="Grupo 1012975" xmlns="http://www.w3.org/2000/svg" xmlns:xlink="http://www.w3.org/1999/xlink" width="221" height="207.208" viewBox="0 0 221 207.208">
  <defs>
    <clipPath id="clip-path">
      <rect id="Rectángulo_351405" data-name="Rectángulo 351405" width="221" height="207.208" fill="none"/>
    </clipPath>
    <clipPath id="clip-path-3">
      <rect id="Rectángulo_351389" data-name="Rectángulo 351389" width="4.592" height="4.055" fill="none"/>
    </clipPath>
    <clipPath id="clip-path-4">
      <rect id="Rectángulo_351390" data-name="Rectángulo 351390" width="8.45" height="4.394" fill="none"/>
    </clipPath>
    <clipPath id="clip-path-5">
      <rect id="Rectángulo_351392" data-name="Rectángulo 351392" width="19.207" height="12.701" fill="none"/>
    </clipPath>
    <clipPath id="clip-path-6">
      <rect id="Rectángulo_351393" data-name="Rectángulo 351393" width="40.901" height="33.618" fill="none"/>
    </clipPath>
    <clipPath id="clip-path-7">
      <rect id="Rectángulo_351394" data-name="Rectángulo 351394" width="8.361" height="8.361" fill="none"/>
    </clipPath>
    <clipPath id="clip-path-8">
      <rect id="Rectángulo_351395" data-name="Rectángulo 351395" width="11.866" height="11.866" fill="none"/>
    </clipPath>
    <clipPath id="clip-path-9">
      <rect id="Rectángulo_351398" data-name="Rectángulo 351398" width="26.552" height="12.09" fill="none"/>
    </clipPath>
    <clipPath id="clip-path-10">
      <rect id="Rectángulo_351400" data-name="Rectángulo 351400" width="9.943" height="17.852" fill="none"/>
    </clipPath>
    <clipPath id="clip-path-11">
      <rect id="Rectángulo_351402" data-name="Rectángulo 351402" width="9.942" height="9.942" fill="none"/>
    </clipPath>
    <clipPath id="clip-path-12">
      <rect id="Rectángulo_351403" data-name="Rectángulo 351403" width="15.931" height="15.931" fill="none"/>
    </clipPath>
  </defs>
  <g id="Grupo_1012974" data-name="Grupo 1012974" clip-path="url(#clip-path)">
    <g id="Grupo_1012973" data-name="Grupo 1012973">
      <g id="Grupo_1012972" data-name="Grupo 1012972" clip-path="url(#clip-path)">
        <path id="Trazado_663922" data-name="Trazado 663922" d="M37.372,255.682s-2.782-.784-4.619.318-1.22,3.048.678,2.966A4.294,4.294,0,0,0,37.372,255.682Z" transform="translate(-14.83 -119.671)" fill="none" stroke="#b6d0d8" stroke-linecap="round" stroke-linejoin="round" stroke-width="0.886"/>
        <path id="Trazado_663923" data-name="Trazado 663923" d="M22.063,258.8s-9.718,9.688-10.9,16.976,8.9-3.63,12.2-15.246" transform="translate(-5.183 -121.261)" fill="none" stroke="#b6d0d8" stroke-linecap="round" stroke-linejoin="round" stroke-width="0.886"/>
        <path id="Trazado_663924" data-name="Trazado 663924" d="M50.7,251.593a4.64,4.64,0,1,0-4.633,4.908,4.777,4.777,0,0,0,4.633-4.908" transform="translate(-19.413 -115.583)" fill="#b6d0d8"/>
        <path id="Trazado_663925" data-name="Trazado 663925" d="M46.978,259.091V256.21A1.978,1.978,0,0,0,45,254.232h-6.44a1.977,1.977,0,0,0-1.977,1.978v2.881s-4.294,1.017-4.294,5.424v33.754a1.893,1.893,0,0,0,1.893,1.893h15.2a1.893,1.893,0,0,0,1.893-1.893V264.514c0-4.407-4.294-5.424-4.294-5.424" transform="translate(-15.129 -119.119)" fill="#c0dae7"/>
        <path id="Trazado_663926" data-name="Trazado 663926" d="M50.764,256.661v-.452a1.978,1.978,0,0,0-1.978-1.978h-6.44a1.977,1.977,0,0,0-1.977,1.978v.452Z" transform="translate(-18.915 -119.119)" fill="#d0e7ef"/>
        <line id="Línea_182" data-name="Línea 182" x2="3.276" y2="1.921" transform="translate(176.498 105.681)" fill="none" stroke="#4f7f2f" stroke-linecap="round" stroke-linejoin="round" stroke-width="1.329"/>
        <line id="Línea_183" data-name="Línea 183" x2="3.503" y2="2.429" transform="translate(174.633 115.341)" fill="none" stroke="#4f7f2f" stroke-linecap="round" stroke-linejoin="round" stroke-width="1.329"/>
        <line id="Línea_184" data-name="Línea 184" x2="4.18" y2="1.186" transform="translate(174.294 123.193)" fill="none" stroke="#4f7f2f" stroke-linecap="round" stroke-linejoin="round" stroke-width="1.329"/>
        <line id="Línea_185" data-name="Línea 185" y1="0.226" x2="2.825" transform="translate(175.65 130.142)" fill="none" stroke="#4f7f2f" stroke-linecap="round" stroke-linejoin="round" stroke-width="1.329"/>
        <line id="Línea_186" data-name="Línea 186" x2="3.785" transform="translate(176.385 140.028)" fill="none" stroke="#4f7f2f" stroke-linecap="round" stroke-linejoin="round" stroke-width="1.329"/>
        <line id="Línea_187" data-name="Línea 187" y1="1.469" x2="2.881" transform="translate(177.797 144.773)" fill="none" stroke="#4f7f2f" stroke-linecap="round" stroke-linejoin="round" stroke-width="1.329"/>
        <line id="Línea_188" data-name="Línea 188" x2="3.22" y2="3.39" transform="translate(180.311 98.591)" fill="none" stroke="#4f7f2f" stroke-linecap="round" stroke-linejoin="round" stroke-width="1.329"/>
        <line id="Línea_189" data-name="Línea 189" x2="0.805" y2="3.22" transform="translate(186.963 96.387)" fill="none" stroke="#4f7f2f" stroke-linecap="round" stroke-linejoin="round" stroke-width="1.329"/>
        <line id="Línea_190" data-name="Línea 190" x1="0.847" y2="2.33" transform="translate(189.421 97.531)" fill="none" stroke="#4f7f2f" stroke-linecap="round" stroke-linejoin="round" stroke-width="1.329"/>
        <line id="Línea_191" data-name="Línea 191" x1="2.542" y2="3.093" transform="translate(193.954 98.591)" fill="none" stroke="#4f7f2f" stroke-linecap="round" stroke-linejoin="round" stroke-width="1.329"/>
        <line id="Línea_192" data-name="Línea 192" x1="3.276" y2="1.299" transform="translate(197.231 105.907)" fill="none" stroke="#4f7f2f" stroke-linecap="round" stroke-linejoin="round" stroke-width="1.329"/>
        <line id="Línea_193" data-name="Línea 193" x1="3.559" y2="2.797" transform="translate(199.462 115.115)" fill="none" stroke="#4f7f2f" stroke-linecap="round" stroke-linejoin="round" stroke-width="1.329"/>
        <line id="Línea_194" data-name="Línea 194" x1="4.152" y2="2.288" transform="translate(198.869 122.572)" fill="none" stroke="#4f7f2f" stroke-linecap="round" stroke-linejoin="round" stroke-width="1.329"/>
        <line id="Línea_195" data-name="Línea 195" x2="0.932" y2="3.305" transform="translate(210.393 115.115)" fill="none" stroke="#4f7f2f" stroke-linecap="round" stroke-linejoin="round" stroke-width="1.329"/>
        <line id="Línea_196" data-name="Línea 196" x1="2.118" y2="3.178" transform="translate(214.715 116.767)" fill="none" stroke="#4f7f2f" stroke-linecap="round" stroke-linejoin="round" stroke-width="1.329"/>
        <line id="Línea_197" data-name="Línea 197" x1="3.813" y2="2.034" transform="translate(216.834 122.572)" fill="none" stroke="#4f7f2f" stroke-linecap="round" stroke-linejoin="round" stroke-width="1.329"/>
        <line id="Línea_198" data-name="Línea 198" y1="0.763" x2="2.966" transform="translate(215.774 131.3)" fill="none" stroke="#4f7f2f" stroke-linecap="round" stroke-linejoin="round" stroke-width="1.329"/>
        <line id="Línea_199" data-name="Línea 199" x2="2.881" y2="1.695" transform="translate(210.393 138.757)" fill="none" stroke="#4f7f2f" stroke-linecap="round" stroke-linejoin="round" stroke-width="1.329"/>
        <line id="Línea_200" data-name="Línea 200" x2="1.949" y2="2.372" transform="translate(205.394 140.452)" fill="none" stroke="#4f7f2f" stroke-linecap="round" stroke-linejoin="round" stroke-width="1.329"/>
        <line id="Línea_201" data-name="Línea 201" y2="2.372" transform="translate(200.945 140.452)" fill="none" stroke="#4f7f2f" stroke-linecap="round" stroke-linejoin="round" stroke-width="1.329"/>
        <line id="Línea_202" data-name="Línea 202" x2="2.711" y2="1.949" transform="translate(196.157 144.096)" fill="none" stroke="#4f7f2f" stroke-linecap="round" stroke-linejoin="round" stroke-width="1.329"/>
        <path id="Trazado_663927" data-name="Trazado 663927" d="M337.784,238.693s-4.746-19.546-4.52-35.93,10.056-18.642,17.174-14.8,6.327,23.953,5.762,28.811a7.35,7.35,0,0,0,6.187-5.2c1.61-4.915,3.079-8.361,8.276-6.328s4.18,16.384-2.26,21.016-14.236,2.147-14.236,2.147l-1.808,10.282Z" transform="translate(-156.145 -87.31)" fill="#67a042"/>
        <path id="Trazado_663928" data-name="Trazado 663928" d="M354.471,287.9v-5.4H327.665v5.4s-2.26,2.542-2.26,8.05a68.55,68.55,0,0,0,.9,10.038,9.967,9.967,0,0,0,2.215,4.968,6.467,6.467,0,0,0,4.961,2.451h15.168a6.465,6.465,0,0,0,4.961-2.451,9.967,9.967,0,0,0,2.215-4.968,68.546,68.546,0,0,0,.9-10.038c0-5.509-2.26-8.05-2.26-8.05" transform="translate(-152.467 -132.367)" fill="#7a164d"/>
        <line id="Línea_203" data-name="Línea 203" x2="1.568" y2="0.975" transform="translate(183.616 113.462)" fill="none" stroke="#4f7f2f" stroke-linecap="round" stroke-linejoin="round" stroke-width="1.329"/>
        <line id="Línea_204" data-name="Línea 204" x2="0.932" y2="0.904" transform="translate(188.404 107.601)" fill="none" stroke="#4f7f2f" stroke-linecap="round" stroke-linejoin="round" stroke-width="1.329"/>
        <line id="Línea_205" data-name="Línea 205" y1="0.339" x2="1.186" transform="translate(193.389 114.437)" fill="none" stroke="#4f7f2f" stroke-linecap="round" stroke-linejoin="round" stroke-width="1.329"/>
        <line id="Línea_206" data-name="Línea 206" x2="1.695" y2="1.102" transform="translate(189.844 121.47)" fill="none" stroke="#4f7f2f" stroke-linecap="round" stroke-linejoin="round" stroke-width="1.329"/>
        <line id="Línea_207" data-name="Línea 207" x1="2.034" y2="1.808" transform="translate(181.921 122.572)" fill="none" stroke="#4f7f2f" stroke-linecap="round" stroke-linejoin="round" stroke-width="1.329"/>
        <line id="Línea_208" data-name="Línea 208" x2="1.158" y2="0.932" transform="translate(193.982 131.215)" fill="none" stroke="#4f7f2f" stroke-linecap="round" stroke-linejoin="round" stroke-width="1.329"/>
        <line id="Línea_209" data-name="Línea 209" x1="1.462" y2="1.313" transform="translate(182.938 131.681)" fill="none" stroke="#4f7f2f" stroke-linecap="round" stroke-linejoin="round" stroke-width="1.329"/>
        <line id="Línea_210" data-name="Línea 210" x2="0.932" y2="2.118" transform="translate(186.836 137.91)" fill="none" stroke="#4f7f2f" stroke-linecap="round" stroke-linejoin="round" stroke-width="1.329"/>
        <line id="Línea_211" data-name="Línea 211" x2="1.441" y2="0.734" transform="translate(191.158 145.508)" fill="none" stroke="#4f7f2f" stroke-linecap="round" stroke-linejoin="round" stroke-width="1.329"/>
        <line id="Línea_212" data-name="Línea 212" x1="2.034" y2="1.384" transform="translate(181.921 145.508)" fill="none" stroke="#4f7f2f" stroke-linecap="round" stroke-linejoin="round" stroke-width="1.329"/>
        <line id="Línea_213" data-name="Línea 213" x2="2.454" y2="0.932" transform="translate(207.343 132.995)" fill="none" stroke="#4f7f2f" stroke-linecap="round" stroke-linejoin="round" stroke-width="1.329"/>
        <line id="Línea_214" data-name="Línea 214" y1="0.339" x2="2.288" transform="translate(212.427 129.69)" fill="none" stroke="#4f7f2f" stroke-linecap="round" stroke-linejoin="round" stroke-width="1.329"/>
        <line id="Línea_215" data-name="Línea 215" x2="1.441" y2="1.263" transform="translate(213.275 122.213)" fill="none" stroke="#4f7f2f" stroke-linecap="round" stroke-linejoin="round" stroke-width="1.329"/>
        <line id="Línea_216" data-name="Línea 216" x2="214.954" transform="translate(0.82 181.042)" fill="none" stroke="#acc7d1" stroke-linecap="round" stroke-linejoin="round" stroke-width="1.772"/>
        <path id="Trazado_663929" data-name="Trazado 663929" d="M184.534,336.6l5.9,5.76s2.886,13.1,10.474,13.894a2.5,2.5,0,0,0,2.688-2.533V319.539l-5.649-1.4Z" transform="translate(-86.462 -149.061)" fill="#cee284"/>
        <path id="Trazado_663930" data-name="Trazado 663930" d="M212.669,378.6a6.86,6.86,0,0,0-6.067,3.657,7.9,7.9,0,0,0,4.65,2.327,2.5,2.5,0,0,0,2.688-2.533v-3.329a6.908,6.908,0,0,0-1.271-.122" transform="translate(-96.802 -177.392)" fill="#eff5d6"/>
        <path id="Trazado_663931" data-name="Trazado 663931" d="M209.88,318.452a6.3,6.3,0,0,0,4.972,10.17v-8.935Z" transform="translate(-97.714 -149.209)" fill="#eff5d6"/>
        <path id="Trazado_663932" data-name="Trazado 663932" d="M99.3,247.64s-17.739,7.005-9.6,22.032c0,0,26.108,25.2,40.849,32.145,0,0,.052,3.559,2.99,4.463a3.916,3.916,0,0,0,4.463-1.525l18.134-19.49S122.8,247.3,99.3,247.64" transform="translate(-41.025 -116.029)" fill="#5887cb"/>
        <path id="Trazado_663933" data-name="Trazado 663933" d="M99.3,247.64s-17.739,7.005-9.6,22.032c0,0,26.108,25.2,40.849,32.145,0,0,.052,3.559,2.99,4.463a3.916,3.916,0,0,0,4.463-1.525l18.134-19.49S122.8,247.3,99.3,247.64" transform="translate(-41.025 -116.029)" fill="#0b253d"/>
        <path id="Trazado_663934" data-name="Trazado 663934" d="M125.908,255.542,92.464,275.767s-6.594-1.808-8.155,4.632L100.147,303s5.424,2.825,7.457-3.164l35.308-19.6,31.679,13.184a7.087,7.087,0,0,0,2.722.544h3.169a15.607,15.607,0,0,0,12.047-5.6c3.505-4.24,6.913-11.274,6.312-22.362V247.068s-51.465-20.789-72.932,8.474" transform="translate(-39.503 -112.407)" fill="#0b2560"/>
        <path id="Trazado_663935" data-name="Trazado 663935" d="M212.132,180.7S198.912,184.656,189,190.757v23.388h59.063l-23.308-33.9Z" transform="translate(-88.554 -84.455)" fill="#fda345"/>
        <path id="Trazado_663936" data-name="Trazado 663936" d="M203.508,216.923l3.729-2.288,6.836,3.3,6.129-3.3,8.39,3.3,5.847-3.728,4.953,2.684,2.084,6.717-12.036-2.481-23.1,8.248Z" transform="translate(-95.352 -100.368)" fill="#f9dabd"/>
        <path id="Trazado_663937" data-name="Trazado 663937" d="M163.058,181.473H176.28a1.135,1.135,0,0,0,1.048-1.571l-8.8-21.119a1.136,1.136,0,0,0-1.048-.7h-14.24a1.135,1.135,0,0,0-1.029,1.613l9.817,21.119a1.135,1.135,0,0,0,1.029.656" transform="translate(-71.268 -74.07)" fill="#a8c6d2"/>
        <path id="Trazado_663938" data-name="Trazado 663938" d="M267.382,210.385l-6.1-17.626-5-12.541s15.343-.847,23.647,5.762c0,0,8.7,19.808,11.073,29.394Z" transform="translate(-120.077 -84.424)" fill="#fda345"/>
        <path id="Trazado_663939" data-name="Trazado 663939" d="M252.3,227.233s28.246,5.46,36.834,10.187c0,0,2.655,13.4-1.413,18.4s-8.643,4.237-10.169,4.237L252.3,247.909Z" transform="translate(-118.213 -106.469)" fill="#fda345"/>
        <path id="Trazado_663940" data-name="Trazado 663940" d="M217.73,115.641s.492-4.643,8.881-7.016,21.354.334,25.93,15a3.213,3.213,0,0,1-4.011,1.57s.734,4.533-2.6,6.793Z" transform="translate(-102.016 -50.539)" fill="#ff90c8"/>
        <path id="Trazado_663941" data-name="Trazado 663941" d="M162.133,187.028H158.4s-2.316-5.762-2.2-9.83c0,0,5.862-3.285,10.287-2.316a.992.992,0,0,1,.5.276,2.634,2.634,0,0,1,.515,2.717,3.1,3.1,0,0,1,.706,3.22,3.808,3.808,0,0,1,.989,2.6c-.141,1.384-7.061,3.333-7.061,3.333" transform="translate(-73.185 -81.857)" fill="#f9c1c0"/>
        <path id="Trazado_663942" data-name="Trazado 663942" d="M238.481,131.584l4.633,7.683a7.861,7.861,0,0,1-7.4,5.367l-1.751,1.751,1.525,7.683s-4.237,5.254-9.6,5.31-3.955-4.859-3.107-5.31l-.823-4.18a15.715,15.715,0,0,1-9.77-11.271,16.461,16.461,0,0,1,3.644-14.745s13.615-3.3,22.654,7.711" transform="translate(-99.198 -57.822)" fill="#f9c1c0"/>
        <path id="Trazado_663943" data-name="Trazado 663943" d="M237.131,129.542S229.9,116.888,216,119.374c0,0-6.44,3.559-7.118,6.158s5.649-1.13,6.5-1.921a2.246,2.246,0,0,0-.141,2.288c.513.833,3.572-1.1,5.032-2.088a.353.353,0,0,1,.546.353,3.129,3.129,0,0,0,.156,2.1c.47.725,4.3-1.229,6.137-2.225a.579.579,0,0,1,.856.558c-.151,1.659-.264,4.64.831,4.943,1.525.424,2.457-1.737,2.457-1.737l3.006,6.7a.535.535,0,0,0,.988-.029Z" transform="translate(-97.848 -55.78)" fill="#79154d"/>
        <path id="Trazado_663944" data-name="Trazado 663944" d="M216.331,137.007a3.725,3.725,0,0,1,4.745.649,1.733,1.733,0,0,0,0-1.44,3.547,3.547,0,0,0-4.576-.283,1.006,1.006,0,0,0-.17,1.074" transform="translate(-101.311 -63.357)" fill="#79154d"/>
        <path id="Trazado_663945" data-name="Trazado 663945" d="M232.585,138.214a12.754,12.754,0,0,1,5.042-1.4,1.145,1.145,0,0,0-.826-1.144s-3.326-.275-4.964,1.709c0,0,.057.847.749.833" transform="translate(-108.625 -63.562)" fill="#79154d"/>
        <path id="Trazado_663946" data-name="Trazado 663946" d="M216.689,144.372a5.943,5.943,0,0,1,3.616,1.186" transform="translate(-101.528 -67.644)" fill="none" stroke="#79154d" stroke-linecap="round" stroke-linejoin="round" stroke-width="1.329"/>
        <path id="Trazado_663947" data-name="Trazado 663947" d="M235.456,144.961a9.588,9.588,0,0,1,4.757-1.864" transform="translate(-110.322 -67.047)" fill="none" stroke="#79154d" stroke-linecap="round" stroke-linejoin="round" stroke-width="1.329"/>
        <path id="Trazado_663948" data-name="Trazado 663948" d="M233.284,247.642a24,24,0,0,0,0-20.676s-13.308-1.582-21.568,2.486l6.2,13.445a140.5,140.5,0,0,1,15.366,4.745" transform="translate(-99.198 -106.202)" fill="#f9c1c0"/>
        <g id="Grupo_1012944" data-name="Grupo 1012944" transform="translate(138.323 77.757)" opacity="0.33" style="mix-blend-mode: multiply;isolation: isolate">
          <g id="Grupo_1012943" data-name="Grupo 1012943">
            <g id="Grupo_1012942" data-name="Grupo 1012942" clip-path="url(#clip-path-3)">
              <path id="Trazado_663949" data-name="Trazado 663949" d="M263.64,146.31s-2.268.284-3.369,4.055c0,0,3.506-.284,4.592-2.028Z" transform="translate(-260.271 -146.31)" fill="#f4807d"/>
            </g>
          </g>
        </g>
        <g id="Grupo_1012947" data-name="Grupo 1012947" transform="translate(122.755 90.879)" opacity="0.33" style="mix-blend-mode: multiply;isolation: isolate">
          <g id="Grupo_1012946" data-name="Grupo 1012946">
            <g id="Grupo_1012945" data-name="Grupo 1012945" clip-path="url(#clip-path-4)">
              <path id="Trazado_663950" data-name="Trazado 663950" d="M230.979,172.187a15.552,15.552,0,0,0,8.45-1.186s-2.883,4.423-7.818,4.394Z" transform="translate(-230.979 -171.001)" fill="#f4807d"/>
            </g>
          </g>
        </g>
        <path id="Trazado_663951" data-name="Trazado 663951" d="M226.506,143.735l.805,2.654s-2.076,1.244-2.118,2.515,2.457,1.144,2.457,1.144" transform="translate(-105.512 -67.346)" fill="none" stroke="#e26060" stroke-linecap="round" stroke-miterlimit="10" stroke-width="1.329"/>
        <path id="Trazado_663952" data-name="Trazado 663952" d="M230.979,172.187s5.116.621,8.45-1.186" transform="translate(-108.224 -80.122)" fill="none" stroke="#e26060" stroke-linecap="round" stroke-miterlimit="10" stroke-width="0.886"/>
        <path id="Trazado_663953" data-name="Trazado 663953" d="M229.624,158.113a22.448,22.448,0,0,0,7.618-3.631.253.253,0,0,1,.311.394,14.651,14.651,0,0,1-5.7,3.292,8.808,8.808,0,0,1-2.2.368.212.212,0,0,1-.216-.209.215.215,0,0,1,.182-.215" transform="translate(-107.504 -72.36)" fill="#e26060"/>
        <path id="Trazado_663954" data-name="Trazado 663954" d="M259.873,151.121s.787-3.739,3.254-4.644" transform="translate(-121.762 -68.631)" fill="none" stroke="#e26060" stroke-linecap="round" stroke-miterlimit="10" stroke-width="1.329"/>
        <path id="Trazado_663955" data-name="Trazado 663955" d="M264,150.357a4.042,4.042,0,0,0-2.268-.029" transform="translate(-122.631 -70.356)" fill="none" stroke="#e26060" stroke-linecap="round" stroke-miterlimit="10" stroke-width="1.329"/>
        <line id="Línea_217" data-name="Línea 217" y1="1.638" x2="7.542" transform="translate(86.377 96.02)" fill="none" stroke="#e26060" stroke-linecap="round" stroke-miterlimit="10" stroke-width="0.886"/>
        <line id="Línea_218" data-name="Línea 218" y1="1.977" x2="7.401" transform="translate(87.366 99.41)" fill="none" stroke="#e26060" stroke-linecap="round" stroke-miterlimit="10" stroke-width="0.886"/>
        <path id="Trazado_663956" data-name="Trazado 663956" d="M158.222,229.418s-8.784-2.768-13.191-2.514-19.123,8.954-19.123,8.954H101.9l-17.13-32.243a3.893,3.893,0,0,1,3.439-5.72h53.643a2.977,2.977,0,0,1,2.706,1.735Z" transform="translate(-39.502 -92.723)" fill="#c0dae7"/>
        <path id="Trazado_663957" data-name="Trazado 663957" d="M150.214,229.754a5.5,5.5,0,0,1-5.486-6.244,5.534,5.534,0,1,0,6.82,6.075,5.546,5.546,0,0,1-1.334.168" transform="translate(-65.843 -104.724)" fill="#fff"/>
        <path id="Trazado_663958" data-name="Trazado 663958" d="M273.709,133.89a11.24,11.24,0,0,1-.795,9.279" transform="translate(-127.872 -62.733)" fill="none" stroke="#cc5d9f" stroke-linecap="round" stroke-linejoin="round" stroke-width="0.886"/>
        <path id="Trazado_663959" data-name="Trazado 663959" d="M160.587,165.565a1.1,1.1,0,1,0-1.1,1.1,1.1,1.1,0,0,0,1.1-1.1" transform="translate(-74.21 -77.058)" fill="#fff"/>
        <path id="Trazado_663960" data-name="Trazado 663960" d="M253.255,227.233s24.366,4.92,29.893,7.545" transform="translate(-118.661 -106.469)" fill="none" stroke="#c1610a" stroke-linecap="round" stroke-linejoin="round" stroke-width="1.329"/>
        <line id="Línea_219" data-name="Línea 219" x2="3.672" y2="10.62" transform="translate(142.729 112.743)" fill="none" stroke="#c1610a" stroke-linecap="round" stroke-linejoin="round" stroke-width="1.329"/>
        <path id="Trazado_663961" data-name="Trazado 663961" d="M288.8,229.684s-5.352-.959-9.413,1.639" transform="translate(-130.908 -107.536)" fill="none" stroke="#c1610a" stroke-linecap="round" stroke-linejoin="round" stroke-width="1.329"/>
        <line id="Línea_220" data-name="Línea 220" x2="10.395" y2="14.349" transform="translate(56.577 172.625)" fill="#0b252c"/>
        <line id="Línea_221" data-name="Línea 221" x1="44.416" y2="24.349" transform="translate(68.102 163.077)" fill="#0b252c"/>
        <line id="Línea_222" data-name="Línea 222" x1="24.855" y1="10.344" transform="translate(103.976 168.058)" fill="#0b252c"/>
        <line id="Línea_223" data-name="Línea 223" y1="8.069" x2="8.348" transform="translate(98.071 169.075)" fill="#0b252c"/>
        <path id="Trazado_663962" data-name="Trazado 663962" d="M67.132,321.148l-4.968,3.587s-13.05-.9-15.818,0a3.8,3.8,0,0,0-2.712,3.559L68.611,345.97a2.761,2.761,0,0,0,3.239-.036l8.327-6.174Z" transform="translate(-20.445 -150.472)" fill="#cee284"/>
        <path id="Trazado_663963" data-name="Trazado 663963" d="M53.8,330.791a6.791,6.791,0,0,0-1.059-3.643,27.369,27.369,0,0,0-6.4.395,3.8,3.8,0,0,0-2.711,3.559l7.356,5.206a6.818,6.818,0,0,0,2.812-5.517" transform="translate(-20.445 -153.28)" fill="#eff5d6"/>
        <path id="Trazado_663964" data-name="Trazado 663964" d="M95.08,359.78a7.859,7.859,0,0,0-11.327.737l3.654,2.586a2.761,2.761,0,0,0,3.239-.036Z" transform="translate(-39.242 -167.605)" fill="#eff5d6"/>
        <path id="Trazado_663965" data-name="Trazado 663965" d="M77.522,91.234H35.474a3.381,3.381,0,0,1-3.381-3.381V25.241a3.381,3.381,0,0,1,3.381-3.381H77.522A3.381,3.381,0,0,1,80.9,25.241V87.853a3.381,3.381,0,0,1-3.381,3.381" transform="translate(-15.037 -10.242)" fill="#d2e5ef"/>
        <rect id="Rectángulo_351391" data-name="Rectángulo 351391" width="40.901" height="61.803" transform="translate(21.011 15.403)" fill="#e1eff4"/>
        <g id="Grupo_1012950" data-name="Grupo 1012950" transform="translate(42.704 64.505)" opacity="0.66">
          <g id="Grupo_1012949" data-name="Grupo 1012949">
            <g id="Grupo_1012948" data-name="Grupo 1012948" clip-path="url(#clip-path-5)">
              <path id="Trazado_663966" data-name="Trazado 663966" d="M80.353,134.075s4.406-.96,8.022-7.4,8.926-5.875,11.186-4.18v11.581Z" transform="translate(-80.353 -121.374)" fill="#cadee5"/>
            </g>
          </g>
        </g>
        <g id="Grupo_1012953" data-name="Grupo 1012953" transform="translate(21.011 19.032)" opacity="0.66">
          <g id="Grupo_1012952" data-name="Grupo 1012952">
            <g id="Grupo_1012951" data-name="Grupo 1012951" clip-path="url(#clip-path-6)">
              <path id="Trazado_663967" data-name="Trazado 663967" d="M39.534,66.766s8.022-9.378,14.236-7.344,7.344,10.846,13.445,9.943,5.649-9.729,9.152-10.232S80.435,61,80.435,61V37.276s-7.909-4.18-12.2,1.582S59.759,52.869,54.9,53.66s-5.726-4.305-8.474-4.972c-3.728-.9-6.892,3.39-6.892,3.39Z" transform="translate(-39.534 -35.812)" fill="#cadee5"/>
            </g>
          </g>
        </g>
        <g id="Grupo_1012956" data-name="Grupo 1012956" transform="translate(31.179 21.765)" opacity="0.66">
          <g id="Grupo_1012955" data-name="Grupo 1012955">
            <g id="Grupo_1012954" data-name="Grupo 1012954" clip-path="url(#clip-path-7)">
              <path id="Trazado_663968" data-name="Trazado 663968" d="M67.029,45.133a4.18,4.18,0,1,0-4.18,4.18,4.181,4.181,0,0,0,4.18-4.18" transform="translate(-58.668 -40.953)" fill="#cadee5"/>
            </g>
          </g>
        </g>
        <g id="Grupo_1012959" data-name="Grupo 1012959" transform="translate(26.179 58.572)" opacity="0.66">
          <g id="Grupo_1012958" data-name="Grupo 1012958">
            <g id="Grupo_1012957" data-name="Grupo 1012957" clip-path="url(#clip-path-8)">
              <path id="Trazado_663969" data-name="Trazado 663969" d="M61.125,116.143a5.933,5.933,0,1,0-5.933,5.933,5.933,5.933,0,0,0,5.933-5.933" transform="translate(-49.259 -110.211)" fill="#cadee5"/>
            </g>
          </g>
        </g>
        <path id="Trazado_663970" data-name="Trazado 663970" d="M258.368,0H184.882a1.8,1.8,0,0,0-1.8,1.8V45.654a1.8,1.8,0,0,0,1.8,1.8h73.486a1.8,1.8,0,0,0,1.8-1.8V1.8a1.8,1.8,0,0,0-1.8-1.8" transform="translate(-85.782)" fill="#d2e5ef"/>
        <rect id="Rectángulo_351396" data-name="Rectángulo 351396" width="68.047" height="39.319" transform="translate(101.819 4.067)" fill="#e1eff4"/>
        <g id="Grupo_1012962" data-name="Grupo 1012962" transform="translate(113.147 12.88)" opacity="0.66">
          <g id="Grupo_1012961" data-name="Grupo 1012961">
            <g id="Grupo_1012960" data-name="Grupo 1012960" clip-path="url(#clip-path-9)">
              <rect id="Rectángulo_351397" data-name="Rectángulo 351397" width="26.552" height="12.09" fill="#cadee5"/>
            </g>
          </g>
        </g>
        <g id="Grupo_1012965" data-name="Grupo 1012965" transform="translate(125.35 18.417)" opacity="0.66">
          <g id="Grupo_1012964" data-name="Grupo 1012964">
            <g id="Grupo_1012963" data-name="Grupo 1012963" clip-path="url(#clip-path-10)">
              <rect id="Rectángulo_351399" data-name="Rectángulo 351399" width="9.942" height="17.852" transform="translate(0.001)" fill="#cadee5"/>
            </g>
          </g>
        </g>
        <g id="Grupo_1012968" data-name="Grupo 1012968" transform="translate(149.642 22.145)" opacity="0.66">
          <g id="Grupo_1012967" data-name="Grupo 1012967">
            <g id="Grupo_1012966" data-name="Grupo 1012966" clip-path="url(#clip-path-11)">
              <rect id="Rectángulo_351401" data-name="Rectángulo 351401" width="9.942" height="9.942" transform="translate(0 0)" fill="#cadee5"/>
            </g>
          </g>
        </g>
        <g id="Grupo_1012971" data-name="Grupo 1012971" transform="translate(141.677 12.033)" opacity="0.66">
          <g id="Grupo_1012970" data-name="Grupo 1012970">
            <g id="Grupo_1012969" data-name="Grupo 1012969" clip-path="url(#clip-path-12)">
              <path id="Trazado_663971" data-name="Trazado 663971" d="M282.513,30.606a7.965,7.965,0,1,0-7.965,7.965,7.966,7.966,0,0,0,7.965-7.965" transform="translate(-266.582 -22.641)" fill="#cadee5"/>
            </g>
          </g>
        </g>
        <path id="Trazado_663972" data-name="Trazado 663972" d="M119.03,48.74h32.663a3.725,3.725,0,0,1,3.726,3.724v18.1l7.879,9.55-7.879-2.2v3.2a3.725,3.725,0,0,1-3.726,3.725H119.03a3.724,3.724,0,0,1-3.724-3.725V52.464a3.724,3.724,0,0,1,3.724-3.724" transform="translate(-54.026 -22.837)" fill="#e05353"/>
        <line id="Línea_224" data-name="Línea 224" x1="19.34" transform="translate(73.457 54.635)" fill="none" stroke="#b21f1f" stroke-linecap="round" stroke-linejoin="round" stroke-width="1.329"/>
        <path id="Trazado_663973" data-name="Trazado 663973" d="M149.052,65.711s-4.057-3.5-7.871-.6-6.232,3.331-8.488,2.364l2.937,9.562s5.484.586,8.13-2.181c2.847-2.977,7.145,0,7.145,0Z" transform="translate(-62.173 -29.969)" fill="#f29191"/>
        <line id="Línea_225" data-name="Línea 225" x2="4.405" y2="19.492" transform="translate(86.744 35.143)" fill="none" stroke="#b21f1f" stroke-linecap="round" stroke-linejoin="round" stroke-width="1.329"/>
      </g>
    </g>
  </g>
</svg>
