<svg xmlns="http://www.w3.org/2000/svg" width="38.933" height="27.027" viewBox="0 0 38.933 27.027">
  <path id="Trazado_664605" data-name="Trazado 664605" d="M19.494-10.876q0,5.456-2.258,8.347A7.883,7.883,0,0,1,10.623.361,7.938,7.938,0,0,1,4.047-2.475Q1.771-5.312,1.716-10.6v-4.842q0-5.51,2.285-8.365a7.942,7.942,0,0,1,6.585-2.854,7.949,7.949,0,0,1,6.576,2.827q2.276,2.827,2.331,8.121ZM14.272-16.2a9.632,9.632,0,0,0-.894-4.765,3.022,3.022,0,0,0-2.791-1.492,2.968,2.968,0,0,0-2.719,1.42,9.014,9.014,0,0,0-.93,4.44v6.4a10.111,10.111,0,0,0,.876,4.783,2.982,2.982,0,0,0,2.809,1.564,2.932,2.932,0,0,0,2.764-1.5,9.869,9.869,0,0,0,.885-4.593Zm14.056.735H31.11a3.92,3.92,0,0,0,2.945-.994,3.641,3.641,0,0,0,.958-2.638,3.219,3.219,0,0,0-.948-2.475,3.676,3.676,0,0,0-2.611-.885,3.853,3.853,0,0,0-2.511.822,2.628,2.628,0,0,0-1.012,2.141H22.709a6.421,6.421,0,0,1,1.111-3.695,7.4,7.4,0,0,1,3.107-2.556,10.371,10.371,0,0,1,4.4-.921,9.835,9.835,0,0,1,6.54,2,6.811,6.811,0,0,1,2.367,5.5,5.535,5.535,0,0,1-1.1,3.324,7.16,7.16,0,0,1-2.891,2.331,6.536,6.536,0,0,1,3.315,2.385,6.469,6.469,0,0,1,1.093,3.758,6.924,6.924,0,0,1-2.556,5.619A10.279,10.279,0,0,1,31.327.361a9.746,9.746,0,0,1-6.441-2.078,6.785,6.785,0,0,1-2.5-5.492h5.221a3.025,3.025,0,0,0,1.111,2.421,4.094,4.094,0,0,0,2.737.939,4.114,4.114,0,0,0,2.918-.985,3.4,3.4,0,0,0,1.057-2.611q0-3.938-4.336-3.938H28.328Z" transform="translate(-1.716 26.666)" fill="#cee284"/>
</svg>
