<svg id="Grupo_1013049" data-name="Grupo 1013049" xmlns="http://www.w3.org/2000/svg" xmlns:xlink="http://www.w3.org/1999/xlink" width="253" height="185.303" viewBox="0 0 253 185.303">
  <defs>
    <clipPath id="clip-path">
      <rect id="Rectángulo_351473" data-name="Rectángulo 351473" width="253" height="185.303" fill="none"/>
    </clipPath>
    <clipPath id="clip-path-3">
      <rect id="Rectángulo_351470" data-name="Rectángulo 351470" width="7.85" height="3.581" fill="none"/>
    </clipPath>
    <clipPath id="clip-path-4">
      <rect id="Rectángulo_351471" data-name="Rectángulo 351471" width="4.058" height="3.784" fill="none"/>
    </clipPath>
  </defs>
  <g id="Grupo_1013048" data-name="Grupo 1013048" clip-path="url(#clip-path)">
    <g id="Grupo_1013047" data-name="Grupo 1013047">
      <g id="Grupo_1013046" data-name="Grupo 1013046" clip-path="url(#clip-path)">
        <path id="Trazado_664164" data-name="Trazado 664164" d="M381.032,250.9s-7.819-3.433-9.154-11.316A8.51,8.51,0,0,1,379,243.4s-.826-4.9,1.081-6.866c0,0,4.323,3.942.953,14.367" transform="translate(-198.229 -126.084)" fill="#d2e5ef"/>
        <path id="Trazado_664165" data-name="Trazado 664165" d="M462.114,273.8s1.59-10.3,7.184-10.044c0,0,1.081,3.814-3.115,8.709,0,0,3.751-2.034,6.421-.255,0,0-3.624,4.069-8.328,4.641,0,0-2.436-1.7-2.161-3.052" transform="translate(-246.318 -140.593)" fill="#d2e5ef"/>
        <path id="Trazado_664166" data-name="Trazado 664166" d="M485.555,343.616s4.387-7.925,9.218-6.527a7.7,7.7,0,0,1-4.609,5.594s3.4-1.1,5.351.339c0,0-2.374,4.493-8.943,3.476Z" transform="translate(-258.824 -179.597)" fill="#d2e5ef"/>
        <path id="Trazado_664167" data-name="Trazado 664167" d="M350.3,294.47s-5.785,1.335-7.692-.636c0,0,1.526-3.179,5.722-2.162a8.213,8.213,0,0,1-4.9-5.722,10.191,10.191,0,0,1,9.281,6.167Z" transform="translate(-182.627 -152.425)" fill="#d2e5ef"/>
        <path id="Trazado_664168" data-name="Trazado 664168" d="M404.452,315.374a3.379,3.379,0,0,0,.827-5.192s4.7-10.489-4.069-15c0,0,4.98-13.88-6.379-17.016,0,0,2.967-5.086-1.356-6.527,0,0,3.221-5.128-3.391-6.463,0,0-.254-14.812-11.061-12.4,0,0-2.331-4.45-6.823-3.518,0,0-3.645-6.273-10.256-3.9a8.056,8.056,0,0,0-5.51,8.815s-3.052-.784-4.069,3.253c0,0-3.73-3-8.985,1.494s-1.187,11.7-1.187,11.7-6.442,1.187-4.917,7.544c0,0-1.78.509-1.017,3.052,0,0-5.006-.2-5.679,6.1a9.356,9.356,0,0,0,4.26,9.071s-11.549,6.358-9.854,18.987Z" transform="translate(-173.144 -130.504)" fill="#dfeff7"/>
        <path id="Trazado_664169" data-name="Trazado 664169" d="M455.453,379.17s-6.676-5.425-3.168-14.664c0,0,5.542,3.221,4.609,11.528,0,0,2.373-7.2,6.357-7.035a9.618,9.618,0,0,1-4.323,10.171Z" transform="translate(-240.547 -194.299)" fill="#d2e5ef"/>
        <path id="Trazado_664170" data-name="Trazado 664170" d="M415.389,345.3s-1.526-39.753-1.017-44.33" transform="translate(-220.825 -160.434)" fill="none" stroke="#c1d6e0" stroke-linecap="round" stroke-linejoin="round" stroke-width="1.513"/>
        <line id="Línea_246" data-name="Línea 246" x2="4.653" y2="3.817" transform="translate(188.8 142.659)" fill="none" stroke="#c1d6e0" stroke-linecap="round" stroke-linejoin="round" stroke-width="1.513"/>
        <line id="Línea_247" data-name="Línea 247" x1="7.093" y2="6.104" transform="translate(193.489 143.168)" fill="none" stroke="#c1d6e0" stroke-linecap="round" stroke-linejoin="round" stroke-width="1.513"/>
        <line id="Línea_248" data-name="Línea 248" x2="7.918" y2="7.456" transform="translate(185.833 153.085)" fill="none" stroke="#c1d6e0" stroke-linecap="round" stroke-linejoin="round" stroke-width="1.513"/>
        <line id="Línea_249" data-name="Línea 249" x1="9.967" y2="7.206" transform="translate(193.751 156.813)" fill="none" stroke="#c1d6e0" stroke-linecap="round" stroke-linejoin="round" stroke-width="1.513"/>
        <path id="Trazado_664171" data-name="Trazado 664171" d="M401.783,362.087l6.672,6.355,9.432-9.746" transform="translate(-214.17 -191.203)" fill="none" stroke="#c1d6e0" stroke-linecap="round" stroke-linejoin="round" stroke-width="1.513"/>
        <path id="Trazado_664172" data-name="Trazado 664172" d="M405.15,275.788a3.141,3.141,0,1,0-3.141,3.141,3.14,3.14,0,0,0,3.141-3.141" transform="translate(-212.617 -145.334)" fill="#fda345"/>
        <path id="Trazado_664173" data-name="Trazado 664173" d="M373.941,316.278a3.141,3.141,0,1,0-3.141,3.141,3.141,3.141,0,0,0,3.141-3.141" transform="translate(-195.981 -166.917)" fill="#fda345"/>
        <path id="Trazado_664174" data-name="Trazado 664174" d="M452.085,307.375a3.141,3.141,0,1,0-3.141,3.141,3.14,3.14,0,0,0,3.141-3.141" transform="translate(-237.635 -162.171)" fill="#fda345"/>
        <path id="Trazado_664175" data-name="Trazado 664175" d="M446.277,349.306a3.141,3.141,0,1,0-3.141,3.141,3.141,3.141,0,0,0,3.141-3.141" transform="translate(-234.539 -184.523)" fill="#fda345"/>
        <path id="Trazado_664176" data-name="Trazado 664176" d="M17.915,273.315s-9.6-3.2-3.525-9.036c0,0-10.211-4.528-11.427-14.056s7.476-15.383,7.476-15.383-4.923-8.265,3.424-10.585a14.758,14.758,0,0,1-2.087-12.309c2.067-6.808,9.34-9.6,12.146-9.6a4.564,4.564,0,0,1-1.266-6.2c2.188-3.89,6.868-1.459,6.868-1.459s-3.324-6.26.617-17.322,14.242-16.214,21.946-5.714c6.065,8.266,2.783,21.841,2.783,21.841s4.619-1.086,3.768,5.191c0,0,6.564.52,3.282,8.5a12.776,12.776,0,0,1,8.464,9.321c1.626,7.415-3.844,12.278-3.844,12.278s5.956,1.945,2.553,8.388c0,0,4.717,1.7,6.107,8.915s-2.744,10.535-2.744,10.535,3.566,1.459.487,5.916a8.008,8.008,0,0,1,1.945,4.22c.648,3.074-5.511,6.559-5.511,6.559Z" transform="translate(-1.517 -88.445)" fill="#dfeff7"/>
        <path id="Trazado_664177" data-name="Trazado 664177" d="M88.469,187.522s-1.7,83.124-.973,97.307" transform="translate(-46.543 -99.958)" fill="none" stroke="#c1d6e0" stroke-linecap="round" stroke-linejoin="round" stroke-width="1.446"/>
        <line id="Línea_250" data-name="Línea 250" x2="5.791" y2="6.969" transform="translate(35.848 95.562)" fill="none" stroke="#c1d6e0" stroke-linecap="round" stroke-linejoin="round" stroke-width="1.446"/>
        <line id="Línea_251" data-name="Línea 251" x1="6.654" y2="8.023" transform="translate(41.594 97.02)" fill="none" stroke="#c1d6e0" stroke-linecap="round" stroke-linejoin="round" stroke-width="1.446"/>
        <path id="Trazado_664178" data-name="Trazado 664178" d="M73.473,238.493l7.049,7.374,7.538-4.537" transform="translate(-39.164 -127.128)" fill="none" stroke="#c1d6e0" stroke-linecap="round" stroke-linejoin="round" stroke-width="1.446"/>
        <line id="Línea_252" data-name="Línea 252" x2="9.47" y2="6.848" transform="translate(31.715 122.792)" fill="none" stroke="#c1d6e0" stroke-linecap="round" stroke-linejoin="round" stroke-width="1.446"/>
        <line id="Línea_253" data-name="Línea 253" x1="11.171" y2="9.684" transform="translate(41.048 129.64)" fill="none" stroke="#c1d6e0" stroke-linecap="round" stroke-linejoin="round" stroke-width="1.446"/>
        <path id="Trazado_664179" data-name="Trazado 664179" d="M71.563,309.562l7.631,3.4,11.171-7.739" transform="translate(-38.147 -162.7)" fill="none" stroke="#c1d6e0" stroke-linecap="round" stroke-linejoin="round" stroke-width="1.446"/>
        <path id="Trazado_664180" data-name="Trazado 664180" d="M68.748,334.054l8.945,5.064,9.523-4.454" transform="translate(-36.646 -178.067)" fill="none" stroke="#c1d6e0" stroke-linecap="round" stroke-linejoin="round" stroke-width="1.446"/>
        <path id="Trazado_664181" data-name="Trazado 664181" d="M140.984,94.18c-4.772,4.556-7.321,17.733-7.321,17.733,1.519,1.79,4.74,1.952,4.74,1.952v5.912h5.163v-5.912s3.221-.162,4.74-1.952c0,0-2.549-13.178-7.321-17.733" transform="translate(-71.249 -50.203)" fill="#8cbad1"/>
        <path id="Trazado_664182" data-name="Trazado 664182" d="M147.1,172.67v.583a.719.719,0,0,1-.719.719h-5.309a.718.718,0,0,1-.718-.746l.957-25.163a.719.719,0,0,1,.718-.692h4.944a.719.719,0,0,1,.719.736Z" transform="translate(-74.814 -78.556)" fill="#0b481e"/>
        <path id="Trazado_664183" data-name="Trazado 664183" d="M376.529,353.263l.64,2.346a1.046,1.046,0,0,0,1.478.659l13.961-7.018L403.7,357.9s3.66,1.139,4.962-2.2c1.227-3.143-11.27-23.186-15.779-28.076a1.978,1.978,0,0,0-1.678-.62c-2.835.312-11.685,1.346-21.345,3.072,0,0,2.034,17.815,6.67,23.184" transform="translate(-197.153 -174.305)" fill="#5887cb"/>
        <path id="Trazado_664184" data-name="Trazado 664184" d="M162.34,342.981l-2.113.114a.6.6,0,0,0-.506.857l6.388,13.21s-11.958,5.559-10.494,9.9h36.045l-5.242-25.272Z" transform="translate(-82.884 -182.189)" fill="#5887cb"/>
        <path id="Trazado_664185" data-name="Trazado 664185" d="M324.566,336.85l18.195-3.249,6.67,23.184-30.4,5.911s-.542-17.064,5.531-25.845" transform="translate(-170.054 -177.825)" fill="#f9c1c0"/>
        <path id="Trazado_664186" data-name="Trazado 664186" d="M261.984,340.655l-4.489,17.181s1.085,7.484,7.267,8.569h21.476l5.532-19.2s-17.788-7.579-29.785-6.552" transform="translate(-137.257 -181.535)" fill="#f9c1c0"/>
        <line id="Línea_254" data-name="Línea 254" y1="7.456" x2="2.091" transform="translate(152.801 164.154)" fill="none" stroke="#e26060" stroke-linecap="round" stroke-miterlimit="10" stroke-width="1.452"/>
        <path id="Trazado_664187" data-name="Trazado 664187" d="M165.4,227.03l-2.6-.184a11.772,11.772,0,0,0-9.023,3.214,15.862,15.862,0,0,0-4.751,11.72l9.87,39.915L182.97,280.5l-4.284-24.241Z" transform="translate(-79.435 -120.903)" fill="#f9c1c0"/>
        <path id="Trazado_664188" data-name="Trazado 664188" d="M200.86,256.776l-3.479-.27-13.287-29.231,12.717,1Z" transform="translate(-98.131 -121.149)" fill="#f9c1c0"/>
        <path id="Trazado_664189" data-name="Trazado 664189" d="M231.519,227.282l-11.28-1.3s-3.8-4.284-6.508-3.85-2.413,3.389-2.413,3.389l4.095,28.824a3.5,3.5,0,0,0,3.145,1.952,3.446,3.446,0,0,0,2.856-2.007l21.331,3.417L238.65,271.4s-4.582.461-2.955,5.83c0,0,23.753,3.9,31.454,6.833a7.8,7.8,0,0,0,2.983-3.349c.813-2.074-1.383-4.23-1.383-4.23l8.053-20.947a47.638,47.638,0,0,0,1.627-15.862c-.488-9.436-46.91-12.392-46.91-12.392" transform="translate(-112.638 -118.389)" fill="#0b2560"/>
        <path id="Trazado_664190" data-name="Trazado 664190" d="M230.955,151.32l-15.619,15.158,6.345,15.212,6.915,1.491,8.168-7.348Z" transform="translate(-114.785 -80.661)" fill="#fda345"/>
        <path id="Trazado_664191" data-name="Trazado 664191" d="M315.216,130.531l14.859,2.739s4.718.895,8.3,9.436,5.207,24,5.207,24-.651,1.586-6.752,2.42-19.659-.771-19.659-.771Z" transform="translate(-168.025 -69.579)" fill="#fda345"/>
        <path id="Trazado_664192" data-name="Trazado 664192" d="M265.623,131.928s-12.609,4.786-12.988,5-3.85,3.308-3.85,3.308L257,178.472h28.716L279.8,130.531Z" transform="translate(-132.614 -69.579)" fill="#fda345"/>
        <line id="Línea_255" data-name="Línea 255" x2="2.314" y2="20.19" transform="translate(149.161 76.934)" fill="none" stroke="#c1610a" stroke-linecap="round" stroke-linejoin="round" stroke-width="1.452"/>
        <line id="Línea_256" data-name="Línea 256" x2="4.836" y2="23.173" transform="translate(117.712 77.165)" fill="none" stroke="#c1610a" stroke-linecap="round" stroke-linejoin="round" stroke-width="1.452"/>
        <path id="Trazado_664193" data-name="Trazado 664193" d="M255.668,188.491s-3.647-6.182-8.365-5.423c0,0,1.871,8.081,8.365,5.423" transform="translate(-131.824 -97.55)" fill="#67a042"/>
        <line id="Línea_257" data-name="Línea 257" y2="12.69" transform="translate(123.722 85.139)" fill="none" stroke="#4f7f2f" stroke-linecap="round" stroke-linejoin="round" stroke-width="0.968"/>
        <path id="Trazado_664194" data-name="Trazado 664194" d="M263.826,210.992s-3.606-3.308-8.053-2.82-7.918,6.182-7.918,6.182,9.952,3.064,15.971-3.363" transform="translate(-132.119 -110.94)" fill="#0b481e"/>
        <path id="Trazado_664195" data-name="Trazado 664195" d="M204.013,189.231l5.288-5.45s10.563,11.876,12.6,15.619l-5.553,6.155Z" transform="translate(-108.749 -97.964)" fill="#f9c1c0"/>
        <path id="Trazado_664196" data-name="Trazado 664196" d="M324.96,212.247l-.569-5.776s14.1-2.6,21.367-.542l.434,8.026Z" transform="translate(-172.916 -109.347)" fill="#f9c1c0"/>
        <path id="Trazado_664197" data-name="Trazado 664197" d="M261.437,80.635s-1.41,11.118,9.572,14.941l1.3,4.393-1.3.447s.136,4.027,6.427,4.46,7.755-5.857,7.755-5.857l-1.844-.325-1.03-6.291L284,90.668a7.614,7.614,0,0,0,5.843-3.024,7.086,7.086,0,0,0,1.369-5.979v-3.5s-8.216-6.833-16.73-6.752a33.841,33.841,0,0,0-15.592,4.438Z" transform="translate(-138 -38.067)" fill="#f9c1c0"/>
        <path id="Trazado_664198" data-name="Trazado 664198" d="M303.95,78.036s1.374,5.411,3.358,8.017a.636.636,0,0,0,1.1-.157c.4-1.023,1.184-2.544,2.379-3.033v-3.48Z" transform="translate(-162.02 -41.597)" fill="#79154d"/>
        <path id="Trazado_664199" data-name="Trazado 664199" d="M265.276,64.259s2.449-9.194,13.938-9.219c11.8-.026,13.992,11.226,13.992,11.226Z" transform="translate(-141.405 -29.339)" fill="#ed66b1"/>
        <path id="Trazado_664200" data-name="Trazado 664200" d="M254.442,79.068s-7.158.651-8.677-4.447c0,0,8.411-6.922,23.482-6.074,14.453.813,19.957,9.328,19.957,9.328s-.217,1.9-4.989,2.224c0,0-.325-2.712-4.447-2.332l-.434-2.875s-6.047-2.684-23.74-1.342a21.886,21.886,0,0,0-1.152,5.518" transform="translate(-131.005 -36.5)" fill="#ff90c8"/>
        <path id="Trazado_664201" data-name="Trazado 664201" d="M268.8,84.949s.488-1.519,3.8-.976a.973.973,0,0,0-.57-1.139s-2.685-.57-3.471,1.519c0,0-.135.447.244.6" transform="translate(-143.143 -44.117)" fill="#79154d"/>
        <path id="Trazado_664202" data-name="Trazado 664202" d="M287.362,81.739a7.721,7.721,0,0,1,4.488-1.274,1.517,1.517,0,0,0-1.573-.976,4.384,4.384,0,0,0-3.064,1.573.958.958,0,0,0,.149.678" transform="translate(-153.092 -42.371)" fill="#79154d"/>
        <path id="Trazado_664203" data-name="Trazado 664203" d="M275.778,92.271c.408,1.022.384,1.992-.054,2.168s-1.124-.512-1.532-1.534-.384-1.992.054-2.168,1.124.512,1.533,1.534" transform="translate(-146.002 -48.353)" fill="#79154d"/>
        <path id="Trazado_664204" data-name="Trazado 664204" d="M292.415,89.658c.408,1.022.384,1.992-.054,2.168s-1.124-.512-1.533-1.534-.384-1.992.054-2.168,1.124.512,1.533,1.534" transform="translate(-154.87 -46.96)" fill="#79154d"/>
        <g id="Grupo_1013042" data-name="Grupo 1013042" transform="translate(133.009 56.288)" opacity="0.33" style="mix-blend-mode: multiply;isolation: isolate">
          <g id="Grupo_1013041" data-name="Grupo 1013041">
            <g id="Grupo_1013040" data-name="Grupo 1013040" clip-path="url(#clip-path-3)">
              <path id="Trazado_664205" data-name="Trazado 664205" d="M284.845,121.763a11.625,11.625,0,0,0,7.85-1.22s-1.595,4.029-7.163,3.54Z" transform="translate(-284.845 -120.543)" fill="#f4807d"/>
            </g>
          </g>
        </g>
        <g id="Grupo_1013045" data-name="Grupo 1013045" transform="translate(147.53 44.087)" opacity="0.33" style="mix-blend-mode: multiply;isolation: isolate">
          <g id="Grupo_1013044" data-name="Grupo 1013044">
            <g id="Grupo_1013043" data-name="Grupo 1013043" clip-path="url(#clip-path-4)">
              <path id="Trazado_664206" data-name="Trazado 664206" d="M315.942,97.993s1.64-3.932,3.376-3.552,0,4.745-3.376,3.552" transform="translate(-315.942 -94.415)" fill="#f4807d"/>
            </g>
          </g>
        </g>
        <path id="Trazado_664207" data-name="Trazado 664207" d="M281.594,92.118l.976,2.563s-1.816.569-1.681,2.142S283.6,98.1,283.6,98.1" transform="translate(-149.723 -49.103)" fill="none" stroke="#e26060" stroke-linecap="round" stroke-linejoin="round" stroke-width="1.452"/>
        <path id="Trazado_664208" data-name="Trazado 664208" d="M319.147,94.47s-2.061.081-3.525,4.067" transform="translate(-168.242 -50.357)" fill="none" stroke="#e26060" stroke-linecap="round" stroke-linejoin="round" stroke-width="1.452"/>
        <path id="Trazado_664209" data-name="Trazado 664209" d="M319.941,98.6a3.4,3.4,0,0,0-2.22,0" transform="translate(-169.361 -52.458)" fill="none" stroke="#e26060" stroke-linecap="round" stroke-linejoin="round" stroke-width="1.452"/>
        <path id="Trazado_664210" data-name="Trazado 664210" d="M286.7,105.577a32.209,32.209,0,0,0,6.657-4.68.241.241,0,0,1,.413.128c.189,1.2.449,4.395-1.756,5.874-3.214,2.155-5.315-1.322-5.315-1.322" transform="translate(-152.827 -53.743)" fill="#e25555"/>
        <path id="Trazado_664211" data-name="Trazado 664211" d="M302.448,217.363l-38.314-5.369a33.025,33.025,0,0,0-7.511-.38c-3.525.325-5.1,1.248-5.369,2.169a2.956,2.956,0,0,0,0,1.681s-7.823-1.211-8.352-1.019-1.18,1.9.529,2.917c0,0-.447,2.44.813,3.335a2.394,2.394,0,0,0,.447,2.3c.922.976,19.307,8.351,22.127,8.948s21.8,3.959,27.549,3.417,7.809-9.328,8.081-11.172a55.07,55.07,0,0,0,0-6.833" transform="translate(-129.172 -112.755)" fill="#f9c1c0"/>
        <path id="Trazado_664212" data-name="Trazado 664212" d="M150.931,156.544s-1.546-5.749-4.095-6.508-4.772,2.766-4.772,2.766-3.688-1.735-6.128-1.247a2.018,2.018,0,0,0-.922,3.742s-1.627,2.982.054,4.393c0,0-1.41,2.169.163,3.525,0,0-1.085,1.247.108,3.308s2.6,2.061,4.23,1.735,2.549-2.712,1.139-3.525a2.837,2.837,0,0,0,1.03-1.8c.163-1.18-1.586-2.847-1.586-2.847s2.441.041,4.311-3.945a15.645,15.645,0,0,0-.732,3.986v13.91l13.68,12.012,12.717,1a3.316,3.316,0,0,1,2.685-1.817c1.79,0,2.386,2.278,2.386,2.278h3.85V179.4s-18.981-17.544-28.119-22.859" transform="translate(-71.448 -79.919)" fill="#f9c1c0"/>
        <path id="Trazado_664213" data-name="Trazado 664213" d="M320.591,216.949l-26.9-3.77" transform="translate(-156.55 -113.635)" fill="none" stroke="#e26060" stroke-linecap="round" stroke-miterlimit="10" stroke-width="0.968"/>
        <path id="Trazado_664214" data-name="Trazado 664214" d="M269.353,219.34a61.918,61.918,0,0,0-6.779-.433s-1.79-.162-1.248-2.549" transform="translate(-139.245 -115.329)" fill="none" stroke="#e26060" stroke-linecap="round" stroke-miterlimit="10" stroke-width="0.968"/>
        <path id="Trazado_664215" data-name="Trazado 664215" d="M244.691,224.023s11.619,3.8,12.975,4.284" transform="translate(-130.432 -119.415)" fill="none" stroke="#e26060" stroke-linecap="round" stroke-miterlimit="10" stroke-width="0.968"/>
        <line id="Línea_258" data-name="Línea 258" x1="10.372" y1="3.986" transform="translate(115.072 107.943)" fill="none" stroke="#e26060" stroke-linecap="round" stroke-miterlimit="10" stroke-width="0.968"/>
        <path id="Trazado_664216" data-name="Trazado 664216" d="M148.1,156.082s-3.01,3.945-2.725,6.142,3.864.366,5.369-3.071c0,0-1.749,6.284,1.017,8.684" transform="translate(-77.479 -83.199)" fill="none" stroke="#e26060" stroke-linecap="round" stroke-linejoin="round" stroke-width="0.968"/>
        <path id="Trazado_664217" data-name="Trazado 664217" d="M134.37,159.41s.627,1.624,5.531,2.495" transform="translate(-71.626 -84.973)" fill="none" stroke="#e26060" stroke-linecap="round" stroke-linejoin="round" stroke-width="0.968"/>
        <path id="Trazado_664218" data-name="Trazado 664218" d="M136.246,170.831a5.592,5.592,0,0,0,5.084.393" transform="translate(-72.626 -91.061)" fill="none" stroke="#e26060" stroke-linecap="round" stroke-linejoin="round" stroke-width="0.968"/>
        <path id="Trazado_664219" data-name="Trazado 664219" d="M136.594,178.38a5.736,5.736,0,0,0,5.477,1.519" transform="translate(-72.811 -95.085)" fill="none" stroke="#e26060" stroke-linecap="round" stroke-linejoin="round" stroke-width="0.968"/>
        <path id="Trazado_664220" data-name="Trazado 664220" d="M264.28,173.789c-.289-2.037-.641-7.81,4.481-8.535,0,0,1.275,6.8-3.652,8.977a.59.59,0,0,1-.829-.442" transform="translate(-140.798 -88.088)" fill="#67a042"/>
        <path id="Trazado_664221" data-name="Trazado 664221" d="M370.15,206.834l2.712.542a3.735,3.735,0,0,1-2.6,1.528Z" transform="translate(-197.308 -110.253)" fill="#c1610a"/>
        <line id="Línea_259" data-name="Línea 259" x2="1.879" y2="13.72" transform="translate(106.897 122.179)" fill="none" stroke="#030918" stroke-miterlimit="10" stroke-width="1"/>
        <path id="Trazado_664222" data-name="Trazado 664222" d="M273.28,270.885l4.23,1.546L269.863,297.4" transform="translate(-143.85 -144.395)" fill="none" stroke="#030918" stroke-miterlimit="10" stroke-width="1"/>
        <line id="Línea_260" data-name="Línea 260" x2="12.121" y2="2.942" transform="translate(143.991 155.151)" fill="none" stroke="#030918" stroke-miterlimit="10" stroke-width="1"/>
        <line id="Línea_261" data-name="Línea 261" x2="15.995" y2="1.201" transform="translate(82.492 105.915)" fill="none" stroke="#e26060" stroke-linecap="round" stroke-miterlimit="10" stroke-width="0.968"/>
        <line id="Línea_262" data-name="Línea 262" x2="5.228" y2="27.673" transform="translate(98.003 130.205)" fill="none" stroke="#e26060" stroke-linecap="round" stroke-miterlimit="10" stroke-width="1.452"/>
        <path id="Trazado_664223" data-name="Trazado 664223" d="M171.668,380.084a7.868,7.868,0,0,1,5.369,1.735" transform="translate(-91.507 -202.589)" fill="none" stroke="#365b91" stroke-linecap="round" stroke-linejoin="round" stroke-width="1.452"/>
        <path id="Trazado_664224" data-name="Trazado 664224" d="M182.566,378.839a10.291,10.291,0,0,0-6.833-1.681" transform="translate(-93.674 -201.018)" fill="none" stroke="#365b91" stroke-linecap="round" stroke-linejoin="round" stroke-width="1.452"/>
        <path id="Trazado_664225" data-name="Trazado 664225" d="M419.946,361.3s-1.749,1.871-1.058,5.694" transform="translate(-223.202 -192.59)" fill="none" stroke="#365b91" stroke-linecap="round" stroke-linejoin="round" stroke-width="1.452"/>
        <path id="Trazado_664226" data-name="Trazado 664226" d="M425.878,367.4s-1.708,1.22-1.3,4.677" transform="translate(-226.286 -195.84)" fill="none" stroke="#365b91" stroke-linecap="round" stroke-linejoin="round" stroke-width="1.452"/>
        <path id="Trazado_664227" data-name="Trazado 664227" d="M148.943,99.2a99.149,99.149,0,0,1,0,16.636,99.148,99.148,0,0,1,0-16.636" transform="translate(-79.208 -52.88)" fill="#6f9fb2"/>
        <path id="Trazado_664228" data-name="Trazado 664228" d="M86.27,26.559h60.883a3.242,3.242,0,0,0,2.683-5.071c-1.337-1.929-3.914-3.628-8.858-3.442,0,0,1.661-5.5-3.841-6.955,0,0,.519-9.758-10.9-8.72a13.194,13.194,0,0,0-13.08-1.142c-7.37,3.322-5.19,11.315-5.19,11.315S98.831,8.5,96.236,17.527c0,0-9.448-.929-12.294,5.432a2.555,2.555,0,0,0,2.328,3.6" transform="translate(-44.625 0)" fill="#dfeff7"/>
        <path id="Trazado_664229" data-name="Trazado 664229" d="M396.346,156.231h59.229a2.006,2.006,0,0,0,1.873-2.772c-.9-2.04-3.139-4.359-8.682-3.738,0,0,4.751-9.645-5.744-9.645,0,0-1.986-9.361-12.624-8.368,0,0-15.176-5.579-16.311,10.874,0,0-6.146-2.742-7.186,4.161,0,0-5.3-1.924-5.863,3.782a16.893,16.893,0,0,0-5.8,1.993,2.021,2.021,0,0,0,1.1,3.713" transform="translate(-210.195 -69.721)" fill="#dfeff7"/>
        <path id="Trazado_664230" data-name="Trazado 664230" d="M338.132,27.208H378.6a1.371,1.371,0,0,0,1.28-1.894c-.616-1.394-2.145-2.978-5.933-2.554,0,0,3.247-6.59-3.925-6.59,0,0-1.357-6.4-8.625-5.718,0,0-10.37-3.812-11.145,7.43,0,0-4.2-1.873-4.91,2.843,0,0-3.618-1.314-4.006,2.584a11.548,11.548,0,0,0-3.96,1.362,1.381,1.381,0,0,0,.755,2.537" transform="translate(-179.505 -5.239)" fill="#dfeff7"/>
        <line id="Línea_263" data-name="Línea 263" x2="252.135" transform="translate(0.433 184.87)" fill="none" stroke="#acc7d1" stroke-linecap="round" stroke-linejoin="round" stroke-width="1.853"/>
      </g>
    </g>
  </g>
</svg>
