<svg xmlns="http://www.w3.org/2000/svg" xmlns:xlink="http://www.w3.org/1999/xlink" width="103" height="103" viewBox="0 0 103 103">
  <defs>
    <filter id="Elipse_4909" x="0" y="0" width="103" height="103" filterUnits="userSpaceOnUse">
      <feOffset dy="3" input="SourceAlpha"/>
      <feGaussianBlur stdDeviation="3" result="blur"/>
      <feFlood flood-opacity="0.161"/>
      <feComposite operator="in" in2="blur"/>
      <feComposite in="SourceGraphic"/>
    </filter>
  </defs>
  <g id="Grupo_1013289" data-name="Grupo 1013289" transform="translate(-171 -3600)">
    <g transform="matrix(1, 0, 0, 1, 171, 3600)" filter="url(#Elipse_4909)">
      <circle id="Elipse_4909-2" data-name="Elipse 4909" cx="42.5" cy="42.5" r="42.5" transform="translate(9 6)" fill="#0b481e"/>
    </g>
    <g id="contabilidad" transform="translate(188.769 3615.22)">
      <path id="Trazado_664298" data-name="Trazado 664298" d="M72.231,33.366A33.366,33.366,0,1,1,38.866,0,33.366,33.366,0,0,1,72.231,33.366Z" transform="translate(-5.5)" fill="#ffb23c"/>
      <path id="Trazado_664299" data-name="Trazado 664299" d="M241.533,65.016,230.515,76.034a1.362,1.362,0,0,1-1.926,0l-.5-.5a1.362,1.362,0,0,1,0-1.926l11.018-11.018a1.362,1.362,0,0,1,1.926,0l.5.5A1.362,1.362,0,0,1,241.533,65.016Zm-13.369.718a2.171,2.171,0,0,0,3.07,0h0a2.171,2.171,0,0,0-3.07-3.07h0a2.171,2.171,0,0,0,0,3.07Zm13.3,7.156a2.171,2.171,0,0,0-3.07,3.07h0a2.171,2.171,0,0,0,3.07,0h0A2.171,2.171,0,0,0,241.46,72.89Z" transform="translate(-197.29 -53.581)" fill="#ee9500"/>
      <path id="Trazado_664300" data-name="Trazado 664300" d="M73.046,29.491l1.046,1.046a1.678,1.678,0,0,0,2.373,0l1.046-1.046A1.678,1.678,0,0,1,78.7,29h0a1.678,1.678,0,0,1,1.678,1.678v33.73A1.678,1.678,0,0,1,78.7,66.087h0a1.678,1.678,0,0,1-1.187-.491l-1.046-1.046a1.678,1.678,0,0,0-2.373,0L73.046,65.6a1.678,1.678,0,0,1-1.187.491h-1A1.678,1.678,0,0,1,69.67,65.6l-1.046-1.046a1.678,1.678,0,0,0-2.373,0L65.206,65.6a1.678,1.678,0,0,1-1.187.491h-1a1.678,1.678,0,0,1-1.187-.491l-1.046-1.046a1.678,1.678,0,0,0-2.373,0L57.365,65.6a1.678,1.678,0,0,1-1.187.491h0A1.678,1.678,0,0,1,54.5,64.409V30.678A1.678,1.678,0,0,1,56.178,29h0a1.678,1.678,0,0,1,1.187.491l1.046,1.046a1.678,1.678,0,0,0,2.373,0l1.046-1.046A1.678,1.678,0,0,1,63.016,29h1a1.678,1.678,0,0,1,1.187.491l1.046,1.046a1.678,1.678,0,0,0,2.373,0l1.046-1.046A1.678,1.678,0,0,1,70.857,29h1A1.678,1.678,0,0,1,73.046,29.491Z" transform="translate(-47.827 -25.051)" fill="#eafaff"/>
      <path id="Trazado_664301" data-name="Trazado 664301" d="M58.586,64.4a1.68,1.68,0,0,0-.175.15L57.365,65.6a1.678,1.678,0,0,1-1.187.492h0A1.678,1.678,0,0,1,54.5,64.409V30.678A1.678,1.678,0,0,1,56.178,29h0a1.678,1.678,0,0,1,1.187.491l1.046,1.046a1.679,1.679,0,0,0,.175.15Z" transform="translate(-47.827 -25.051)" fill="#d8e7f2"/>
      <path id="Trazado_664302" data-name="Trazado 664302" d="M94.928,96.983v8.171a.681.681,0,0,1-.681.681H75.181a.681.681,0,0,1-.681-.681V96.983a.681.681,0,0,1,.681-.681H94.247A.681.681,0,0,1,94.928,96.983Zm-.681-9.533a.681.681,0,0,0-.681-.681H88.119a.681.681,0,0,0-.681.681v1.362a.681.681,0,0,0,.681.681h5.447a.681.681,0,0,0,.681-.681Zm-18.385-3.4h17.7a.681.681,0,0,0,.681-.681V82a.681.681,0,0,0-.681-.681h-17.7a.681.681,0,0,0-.681.681v1.362A.681.681,0,0,0,75.862,84.046Zm0,5.447h5.447a.681.681,0,0,0,.681-.681V87.45a.681.681,0,0,0-.681-.681H75.862a.681.681,0,0,0-.681.681v1.362A.681.681,0,0,0,75.862,89.493Zm0,4.086h8.171a.681.681,0,0,0,.681-.681V91.536a.681.681,0,0,0-.681-.681H75.862a.681.681,0,0,0-.681.681V92.9A.681.681,0,0,0,75.862,93.579Zm17.7-2.724H89.481a.681.681,0,0,0-.681.681V92.9a.681.681,0,0,0,.681.681h4.086a.681.681,0,0,0,.681-.681V91.536A.681.681,0,0,0,93.566,90.855Z" transform="translate(-65.103 -70.247)" fill="#b1c0cf"/>
      <path id="Trazado_664303" data-name="Trazado 664303" d="M115.232,223.561H88.825a2.043,2.043,0,0,1-2.043-2.043V189.754a2.043,2.043,0,0,1,2.043-2.043h26.408a2.043,2.043,0,0,1,2.043,2.043v31.765A2.043,2.043,0,0,1,115.232,223.561Z" transform="translate(-75.712 -162.147)" fill="#013963"/>
      <path id="Trazado_664304" data-name="Trazado 664304" d="M135.619,223.561H112.426a2.043,2.043,0,0,1-2.043-2.043V189.754a2.043,2.043,0,0,1,2.043-2.043h23.194a2.043,2.043,0,0,1,2.043,2.043v31.765A2.043,2.043,0,0,1,135.619,223.561Z" transform="translate(-96.099 -162.147)" fill="#014c7e"/>
      <path id="Trazado_664305" data-name="Trazado 664305" d="M115.329,315.873v1.4a1.362,1.362,0,0,1-1.362,1.362h-2.221a1.362,1.362,0,0,1-1.362-1.362v-1.4a1.362,1.362,0,0,1,1.362-1.362h2.221A1.362,1.362,0,0,1,115.329,315.873Zm-1.362,4.407h-2.221a1.362,1.362,0,0,0-1.362,1.362v1.4a1.362,1.362,0,0,0,1.362,1.362h2.221a1.362,1.362,0,0,0,1.362-1.362v-1.4A1.362,1.362,0,0,0,113.967,320.28Zm4.29-7.417h2.221a1.362,1.362,0,0,0,1.362-1.362v-1.4a1.362,1.362,0,0,0-1.362-1.362h-2.221a1.362,1.362,0,0,0-1.362,1.362v1.4A1.362,1.362,0,0,0,118.257,312.863Zm0,5.769h2.221a1.362,1.362,0,0,0,1.362-1.362v-1.4a1.362,1.362,0,0,0-1.362-1.362h-2.221a1.362,1.362,0,0,0-1.362,1.362v1.4A1.362,1.362,0,0,0,118.257,318.632Zm-4.29-9.89h-2.221a1.362,1.362,0,0,0-1.362,1.362v1.4a1.362,1.362,0,0,0,1.362,1.362h2.221a1.362,1.362,0,0,0,1.362-1.362v-1.4A1.362,1.362,0,0,0,113.967,308.742Zm13.021,11.538h-8.732a1.362,1.362,0,0,0-1.362,1.362v1.4a1.362,1.362,0,0,0,1.362,1.362h8.732a1.362,1.362,0,0,0,1.362-1.362v-1.4A1.362,1.362,0,0,0,126.988,320.28Zm0-11.538h-2.221a1.362,1.362,0,0,0-1.362,1.362v1.4a1.362,1.362,0,0,0,1.362,1.362h2.221a1.362,1.362,0,0,0,1.362-1.362v-1.4A1.362,1.362,0,0,0,126.988,308.742Zm0,5.769h-2.221a1.362,1.362,0,0,0-1.362,1.362v1.4a1.362,1.362,0,0,0,1.362,1.362h2.221a1.362,1.362,0,0,0,1.362-1.362v-1.4A1.362,1.362,0,0,0,126.988,314.511Z" transform="translate(-96.1 -266.695)" fill="#067fc8"/>
      <path id="Trazado_664306" data-name="Trazado 664306" d="M130.123,318.632h-.7a1.362,1.362,0,0,1-1.362-1.362v-1.4a1.362,1.362,0,0,1,1.362-1.362h.7a1.362,1.362,0,0,1,1.362,1.362v1.4A1.362,1.362,0,0,1,130.123,318.632Zm4.449-8.528v1.4a1.362,1.362,0,0,0,1.362,1.362h.7A1.362,1.362,0,0,0,138,311.5v-1.4a1.362,1.362,0,0,0-1.362-1.362h-.7A1.362,1.362,0,0,0,134.571,310.1ZM138,317.27v-1.4a1.362,1.362,0,0,0-1.362-1.362h-.7a1.362,1.362,0,0,0-1.362,1.362v1.4a1.362,1.362,0,0,0,1.362,1.362h.7A1.362,1.362,0,0,0,138,317.27Zm-9.935-7.166v1.4a1.362,1.362,0,0,0,1.362,1.362h.7a1.362,1.362,0,0,0,1.362-1.362v-1.4a1.362,1.362,0,0,0-1.362-1.362h-.7A1.362,1.362,0,0,0,128.061,310.1Zm-3.087,12.935v-1.4a1.362,1.362,0,0,0-1.362-1.362h-.7a1.362,1.362,0,0,0-1.362,1.362v1.4a1.362,1.362,0,0,0,1.362,1.362h.7A1.362,1.362,0,0,0,124.974,323.039Zm13.021,0v-1.4a1.362,1.362,0,0,0-1.362-1.362h-7.211a1.362,1.362,0,0,0-1.362,1.362v1.4a1.362,1.362,0,0,0,1.362,1.362h7.211A1.362,1.362,0,0,0,138,323.039Zm-13.021-5.769v-1.4a1.362,1.362,0,0,0-1.362-1.362h-.7a1.362,1.362,0,0,0-1.362,1.362v1.4a1.362,1.362,0,0,0,1.362,1.362h.7A1.362,1.362,0,0,0,124.974,317.27ZM121.55,310.1v1.4a1.362,1.362,0,0,0,1.362,1.362h.7a1.362,1.362,0,0,0,1.362-1.362v-1.4a1.362,1.362,0,0,0-1.362-1.362h-.7A1.362,1.362,0,0,0,121.55,310.1Z" transform="translate(-105.746 -266.695)" fill="#368ed7"/>
      <path id="Trazado_664307" data-name="Trazado 664307" d="M256.831,317.27V310.1a1.362,1.362,0,0,1,1.362-1.362h1.4a1.362,1.362,0,0,1,1.362,1.362v7.166a1.362,1.362,0,0,1-1.362,1.362h-1.4A1.362,1.362,0,0,1,256.831,317.27Z" transform="translate(-222.603 -266.695)" fill="#ff4927"/>
      <path id="Trazado_664308" data-name="Trazado 664308" d="M270.168,310.113v7.166a1.334,1.334,0,1,1-2.668,0v-7.166a1.334,1.334,0,1,1,2.668,0Z" transform="translate(-231.819 -266.704)" fill="#ff5526"/>
      <path id="Trazado_664309" data-name="Trazado 664309" d="M256.831,396.223v-1.4a1.362,1.362,0,0,1,1.362-1.362h1.4a1.362,1.362,0,0,1,1.362,1.362v1.4a1.362,1.362,0,0,1-1.362,1.362h-1.4A1.362,1.362,0,0,1,256.831,396.223Z" transform="translate(-222.603 -339.879)" fill="#409a8f"/>
      <path id="Trazado_664310" data-name="Trazado 664310" d="M270.168,394.835v1.4a1.334,1.334,0,1,1-2.668,0v-1.4a1.334,1.334,0,1,1,2.668,0Z" transform="translate(-231.819 -339.888)" fill="#53b1a2"/>
      <path id="Trazado_664311" data-name="Trazado 664311" d="M133.086,220.983H111.745a1.362,1.362,0,0,1-1.362-1.362v-6.342a1.362,1.362,0,0,1,1.362-1.362h21.341a1.362,1.362,0,0,1,1.362,1.362v6.342A1.362,1.362,0,0,1,133.086,220.983Z" transform="translate(-96.099 -183.057)" fill="#2fcfdc"/>
      <path id="Trazado_664312" data-name="Trazado 664312" d="M148.769,220.983H129.9a1.362,1.362,0,0,1-1.362-1.362v-6.342a1.362,1.362,0,0,1,1.362-1.362h18.869a1.362,1.362,0,0,1,1.362,1.362v6.342A1.362,1.362,0,0,1,148.769,220.983Z" transform="translate(-111.782 -183.057)" fill="#81e1e9"/>
      <path id="Trazado_664313" data-name="Trazado 664313" d="M140.519,233.413h0a.953.953,0,0,1-.953-.953v-2.506a.953.953,0,0,1,.953-.953h0a.953.953,0,0,1,.953.953v2.506A.953.953,0,0,1,140.519,233.413Zm-3.541,0h0a.953.953,0,0,1-.953-.953v-2.506a.953.953,0,0,1,.953-.953h0a.953.953,0,0,1,.953.953v2.506A.953.953,0,0,1,136.979,233.413Zm-4.086,0h0a.953.953,0,0,1-.953-.953v-2.506a.953.953,0,0,1,.953-.953h0a.953.953,0,0,1,.953.953v2.506A.953.953,0,0,1,132.893,233.413Zm-11.44-2.506h0a.953.953,0,0,1-.953-.953h0a.953.953,0,0,1,.953-.953h0a.953.953,0,0,1,.953.953h0A.953.953,0,0,1,121.453,230.907Zm8.716,0h0a.953.953,0,0,1-.953-.953h0a.953.953,0,0,1,.953-.953h0a.953.953,0,0,1,.953.953h0A.953.953,0,0,1,130.169,230.907Zm-8.716,2.724h0a.953.953,0,0,1-.953-.953h0a.953.953,0,0,1,.953-.953h0a.953.953,0,0,1,.953.953h0A.953.953,0,0,1,121.453,233.63Z" transform="translate(-104.839 -197.813)" fill="#368ed7"/>
      <path id="Trazado_664314" data-name="Trazado 664314" d="M378.5,66.895V57.362A1.362,1.362,0,0,1,379.862,56h0a1.362,1.362,0,0,1,1.362,1.362v9.533a1.362,1.362,0,0,1-1.362,1.362h0A1.362,1.362,0,0,1,378.5,66.895Z" transform="translate(-327.702 -48.374)" fill="#013963"/>
      <path id="Trazado_664315" data-name="Trazado 664315" d="M363.033,90.3v51.536a.681.681,0,0,1-.681.681h-8.171a.681.681,0,0,1-.681-.681V90.3a.681.681,0,0,1,.123-.39l2.533-3.619a.681.681,0,0,1,.558-.29h3.1a.681.681,0,0,1,.558.29l2.533,3.619A.68.68,0,0,1,363.033,90.3Z" transform="translate(-306.107 -74.288)" fill="#ff4927"/>
      <path id="Trazado_664316" data-name="Trazado 664316" d="M358.4,142.517h-4.222a.681.681,0,0,1-.681-.681V90.3a.68.68,0,0,1,.123-.39l2.534-3.619a.681.681,0,0,1,.558-.29h3.1a.681.681,0,0,1,.558.29h0l-2.533,3.618a.681.681,0,0,0-.123.39v51.536A.681.681,0,0,0,358.4,142.517Z" transform="translate(-306.107 -74.288)" fill="#eb4328"/>
      <path id="Trazado_664317" data-name="Trazado 664317" d="M342.5,143.7V127.362A1.362,1.362,0,0,1,343.862,126h9.805a1.362,1.362,0,0,1,1.362,1.362V143.7a1.362,1.362,0,0,1-1.362,1.362h-9.805A1.362,1.362,0,0,1,342.5,143.7Z" transform="translate(-296.605 -108.84)" fill="#015d96"/>
      <path id="Trazado_664318" data-name="Trazado 664318" d="M374.5,143.7V127.362A1.362,1.362,0,0,1,375.862,126h5.447a1.362,1.362,0,0,1,1.362,1.362V143.7a1.362,1.362,0,0,1-1.362,1.362h-5.447A1.362,1.362,0,0,1,374.5,143.7Z" transform="translate(-324.247 -108.84)" fill="#066dae"/>
      <path id="Trazado_664319" data-name="Trazado 664319" d="M342.5,380.98V367.362A1.362,1.362,0,0,1,343.862,366h9.805a1.362,1.362,0,0,1,1.362,1.362V380.98a1.362,1.362,0,0,1-1.362,1.362h-9.805A1.362,1.362,0,0,1,342.5,380.98Z" transform="translate(-296.605 -316.156)" fill="#015d96"/>
      <path id="Trazado_664320" data-name="Trazado 664320" d="M374.5,380.98V367.362A1.362,1.362,0,0,1,375.862,366h5.447a1.362,1.362,0,0,1,1.362,1.362V380.98a1.362,1.362,0,0,1-1.362,1.362h-5.447A1.362,1.362,0,0,1,374.5,380.98Z" transform="translate(-324.247 -316.156)" fill="#066dae"/>
      <path id="Trazado_664321" data-name="Trazado 664321" d="M408.586,327.79h-2.724a1.362,1.362,0,0,1-1.362-1.362v-17.7A2.724,2.724,0,0,1,407.224,306h0a2.724,2.724,0,0,1,2.724,2.724v17.7A1.362,1.362,0,0,1,408.586,327.79Z" transform="translate(-350.162 -264.327)" fill="#013963"/>
    </g>
  </g>
</svg>
