<svg xmlns="http://www.w3.org/2000/svg" xmlns:xlink="http://www.w3.org/1999/xlink" width="103" height="103" viewBox="0 0 103 103">
  <defs>
    <filter id="Elipse_4909" x="0" y="0" width="103" height="103" filterUnits="userSpaceOnUse">
      <feOffset dy="3" input="SourceAlpha"/>
      <feGaussianBlur stdDeviation="3" result="blur"/>
      <feFlood flood-opacity="0.161"/>
      <feComposite operator="in" in2="blur"/>
      <feComposite in="SourceGraphic"/>
    </filter>
  </defs>
  <g id="Grupo_1013290" data-name="Grupo 1013290" transform="translate(-486 -3600)">
    <g transform="matrix(1, 0, 0, 1, 486, 3600)" filter="url(#Elipse_4909)">
      <circle id="Elipse_4909-2" data-name="Elipse 4909" cx="42.5" cy="42.5" r="42.5" transform="translate(9 6)" fill="#0b481e"/>
    </g>
    <g id="negocios-internacionales" transform="translate(502.943 3614.443)">
      <g id="Grupo_1013103" data-name="Grupo 1013103" transform="translate(2.334 1.82)">
        <circle id="Elipse_7773" data-name="Elipse 7773" cx="32.198" cy="32.198" r="32.198" transform="translate(0 0)" fill="#5cd4ab"/>
        <g id="Grupo_1013101" data-name="Grupo 1013101" transform="translate(31.723)">
          <path id="Trazado_664367" data-name="Trazado 664367" d="M256.475,13.682c-.159,0-.317,0-.475.006V78.072c.158,0,.316.006.475.006a32.2,32.2,0,0,0,0-64.4Z" transform="translate(-256 -13.682)" fill="#32bea6"/>
        </g>
        <g id="Grupo_1013102" data-name="Grupo 1013102" transform="translate(1.657 3.084)">
          <path id="Trazado_664368" data-name="Trazado 664368" d="M60.055,347.216H49.1a30.208,30.208,0,0,0,20.126,17.018,32.169,32.169,0,0,1-6.429-9.261A42.37,42.37,0,0,1,60.055,347.216Z" transform="translate(-46.556 -305.928)" fill="none"/>
          <path id="Trazado_664369" data-name="Trazado 664369" d="M62.794,46.122a32.172,32.172,0,0,1,6.429-9.261A30.208,30.208,0,0,0,49.1,53.879H60.055a42.371,42.371,0,0,1,2.739-7.757Z" transform="translate(-46.556 -36.861)" fill="none"/>
          <path id="Trazado_664370" data-name="Trazado 664370" d="M258,86.161V98.651a26.473,26.473,0,0,0,8.222-10.328,38.062,38.062,0,0,0,2.3-6.346l.816-3.7a47.919,47.919,0,0,0,0-16.288l-.816-3.7a38.062,38.062,0,0,0-2.3-6.346A26.473,26.473,0,0,0,258,41.609V54.1h-2V86.161Z" transform="translate(-225.934 -40.977)" fill="none"/>
          <path id="Trazado_664371" data-name="Trazado 664371" d="M162.543,41.612a26.472,26.472,0,0,0-8.221,10.328A37.918,37.918,0,0,0,152.1,58h.025l-.921,3.991a47.918,47.918,0,0,0,0,16.288l1.015,3.991H152.1a37.931,37.931,0,0,0,2.225,6.058,26.471,26.471,0,0,0,8.221,10.328V86.163h2V54.1h-2Z" transform="translate(-134.473 -40.98)" fill="none"/>
          <path id="Trazado_664372" data-name="Trazado 664372" d="M42.04,202.928a51.381,51.381,0,0,1,.642-8.144H31.111a30.4,30.4,0,0,0,0,16.288H42.682A51.4,51.4,0,0,1,42.04,202.928Z" transform="translate(-30 -173.775)" fill="none"/>
          <path id="Trazado_664373" data-name="Trazado 664373" d="M318.054,354.974a32.176,32.176,0,0,1-6.429,9.261,30.208,30.208,0,0,0,20.125-17.018H320.793A42.382,42.382,0,0,1,318.054,354.974Z" transform="translate(-274.159 -305.929)" fill="none"/>
          <path id="Trazado_664374" data-name="Trazado 664374" d="M398.244,194.784H386.673a51.961,51.961,0,0,1,0,16.288h11.571a30.4,30.4,0,0,0,0-16.288Z" transform="translate(-339.224 -173.775)" fill="none"/>
          <path id="Trazado_664375" data-name="Trazado 664375" d="M331.75,53.88a30.209,30.209,0,0,0-20.125-17.018,32.171,32.171,0,0,1,6.429,9.261,42.371,42.371,0,0,1,2.739,7.757Z" transform="translate(-274.159 -36.862)" fill="none"/>
        </g>
      </g>
      <g id="Grupo_1013104" data-name="Grupo 1013104" transform="translate(36.052 4.904)">
        <path id="Trazado_664376" data-name="Trazado 664376" d="M279.222,51.937A26.472,26.472,0,0,0,271,41.609V58h10.446A37.926,37.926,0,0,0,279.222,51.937Z" transform="translate(-271 -40.977)" fill="none"/>
        <path id="Trazado_664377" data-name="Trazado 664377" d="M320.793,53.88H331.75a30.209,30.209,0,0,0-20.125-17.018,32.171,32.171,0,0,1,6.429,9.261A42.38,42.38,0,0,1,320.793,53.88Z" transform="translate(-306.221 -36.862)" fill="none"/>
        <path id="Trazado_664378" data-name="Trazado 664378" d="M318.054,354.973a32.175,32.175,0,0,1-6.429,9.261,30.209,30.209,0,0,0,20.125-17.018H320.793A42.381,42.381,0,0,1,318.054,354.973Z" transform="translate(-306.221 -305.929)" fill="none"/>
        <path id="Trazado_664379" data-name="Trazado 664379" d="M398.244,194.784H386.673a51.961,51.961,0,0,1,0,16.288h11.571a30.4,30.4,0,0,0,0-16.288Z" transform="translate(-371.285 -173.775)" fill="none"/>
      </g>
      <g id="Grupo_1013106" data-name="Grupo 1013106" transform="translate(3.991 4.904)">
        <path id="Trazado_664380" data-name="Trazado 664380" d="M42.04,202.928a51.381,51.381,0,0,1,.642-8.144H31.111a30.4,30.4,0,0,0,0,16.288H42.682A51.4,51.4,0,0,1,42.04,202.928Z" transform="translate(-30 -173.775)" fill="none"/>
        <path id="Trazado_664381" data-name="Trazado 664381" d="M62.794,46.122a32.172,32.172,0,0,1,6.429-9.261A30.208,30.208,0,0,0,49.1,53.879H60.055a42.371,42.371,0,0,1,2.739-7.757Z" transform="translate(-46.556 -36.861)" fill="none"/>
        <path id="Trazado_664382" data-name="Trazado 664382" d="M162.476,58h10.446V41.612A26.472,26.472,0,0,0,164.7,51.94,37.91,37.91,0,0,0,162.476,58Z" transform="translate(-144.852 -40.98)" fill="none"/>
        <path id="Trazado_664383" data-name="Trazado 664383" d="M60.055,347.216H49.1a30.208,30.208,0,0,0,20.126,17.018,32.169,32.169,0,0,1-6.429-9.261A42.37,42.37,0,0,1,60.055,347.216Z" transform="translate(-46.556 -305.928)" fill="none"/>
        <path id="Trazado_664384" data-name="Trazado 664384" d="M151.2,194.784a47.917,47.917,0,0,0,0,16.287h11.342V194.784Z" transform="translate(-134.473 -173.775)" fill="none"/>
        <g id="Grupo_1013105" data-name="Grupo 1013105">
          <path id="Trazado_664385" data-name="Trazado 664385" d="M62.794,46.122a32.172,32.172,0,0,1,6.429-9.261A30.208,30.208,0,0,0,49.1,53.879H60.055a42.371,42.371,0,0,1,2.739-7.757Z" transform="translate(-46.556 -36.861)" fill="none"/>
          <path id="Trazado_664386" data-name="Trazado 664386" d="M162.476,58h10.446V41.612A26.472,26.472,0,0,0,164.7,51.94,37.91,37.91,0,0,0,162.476,58Z" transform="translate(-144.852 -40.98)" fill="none"/>
          <path id="Trazado_664387" data-name="Trazado 664387" d="M42.04,202.928a51.381,51.381,0,0,1,.642-8.144H31.111a30.4,30.4,0,0,0,0,16.288H42.682A51.4,51.4,0,0,1,42.04,202.928Z" transform="translate(-30 -173.775)" fill="none"/>
          <path id="Trazado_664388" data-name="Trazado 664388" d="M150.5,202.928a47.213,47.213,0,0,0,.7,8.144h11.342V194.784H151.2A47.216,47.216,0,0,0,150.5,202.928Z" transform="translate(-134.472 -173.775)" fill="none"/>
          <path id="Trazado_664389" data-name="Trazado 664389" d="M60.055,347.216H49.1a30.208,30.208,0,0,0,20.126,17.018,32.169,32.169,0,0,1-6.429-9.261A42.37,42.37,0,0,1,60.055,347.216Z" transform="translate(-46.556 -305.928)" fill="none"/>
          <path id="Trazado_664390" data-name="Trazado 664390" d="M162.595,347.215h-.119a37.93,37.93,0,0,0,2.225,6.058,26.471,26.471,0,0,0,8.221,10.328V347.215Z" transform="translate(-144.852 -305.928)" fill="none"/>
        </g>
      </g>
      <path id="Trazado_664391" data-name="Trazado 664391" d="M280.082,9.975A33.835,33.835,0,0,0,256,0V44.678h2V25.913h11.342a47.917,47.917,0,0,1,0,16.288l-.816,3.7a38.059,38.059,0,0,1-2.3,6.346A26.47,26.47,0,0,1,258,62.578V50.087h-2V68.113A34.057,34.057,0,0,0,280.082,9.975ZM277.26,12.8a30.049,30.049,0,0,1,6.265,9.125H272.568a42.368,42.368,0,0,0-2.739-7.757A32.175,32.175,0,0,0,263.4,4.9,29.88,29.88,0,0,1,277.26,12.8ZM258,5.535a26.473,26.473,0,0,1,8.222,10.328,37.935,37.935,0,0,1,2.224,6.058H258ZM277.26,55.316a29.882,29.882,0,0,1-13.86,7.893,32.171,32.171,0,0,0,6.429-9.261,42.373,42.373,0,0,0,2.739-7.757h10.957A30.049,30.049,0,0,1,277.26,55.316ZM273.384,42.2a51.961,51.961,0,0,0,0-16.288h11.571a30.4,30.4,0,0,1,0,16.288Z" transform="translate(-221.943)" fill="#25a590"/>
      <path id="Trazado_664392" data-name="Trazado 664392" d="M34.057,0A34.057,34.057,0,0,0,9.975,58.138a33.835,33.835,0,0,0,24.082,9.975c.073,0,.146-.089.219-.089V.238C34.2.238,34.13,0,34.057,0Zm-2,5.536V21.922H21.615a37.93,37.93,0,0,1,2.225-6.058A26.472,26.472,0,0,1,32.061,5.536Zm0,20.377V42.2H20.719a47.917,47.917,0,0,1,0-16.287ZM12.8,12.8A29.879,29.879,0,0,1,26.657,4.9a32.169,32.169,0,0,0-6.429,9.261,42.371,42.371,0,0,0-2.739,7.757H6.532A30.052,30.052,0,0,1,12.8,12.8ZM3.991,34.057A30.21,30.21,0,0,1,5.1,25.913H16.673a51.961,51.961,0,0,0,0,16.288H5.1a30.21,30.21,0,0,1-1.111-8.144ZM12.8,55.316a30.049,30.049,0,0,1-6.265-9.125H17.489a42.367,42.367,0,0,0,2.739,7.757,32.172,32.172,0,0,0,6.429,9.261A29.879,29.879,0,0,1,12.8,55.316Zm19.4,7.261A26.739,26.739,0,0,1,23.84,52.249a37.913,37.913,0,0,1-2.225-6.058H32.194Z" transform="translate(0)" fill="#32bea6"/>
      <g id="Grupo_1013110" data-name="Grupo 1013110" transform="translate(32.061 47.832)">
        <g id="Grupo_1013109" data-name="Grupo 1013109">
          <g id="Grupo_1013108" data-name="Grupo 1013108">
            <g id="Grupo_1013107" data-name="Grupo 1013107">
              <path id="Trazado_664393" data-name="Trazado 664393" d="M259.309,379.833H241V359.552h18.309Z" transform="translate(-241 -359.552)" fill="#7d89e5"/>
            </g>
          </g>
        </g>
      </g>
      <g id="Grupo_1013111" data-name="Grupo 1013111" transform="translate(50.181 47.832)">
        <path id="Trazado_664394" data-name="Trazado 664394" d="M377.206,359.552h17.932v20.281H377.206Z" transform="translate(-377.206 -359.552)" fill="#6260d0"/>
      </g>
      <g id="Grupo_1013114" data-name="Grupo 1013114" transform="translate(42.409 34.862)">
        <g id="Grupo_1013113" data-name="Grupo 1013113">
          <g id="Grupo_1013112" data-name="Grupo 1013112">
            <path id="Trazado_664395" data-name="Trazado 664395" d="M322.776,271.388h-3.991v-9.334h15.544v9.123h-3.991v-5.132h-7.562Z" transform="translate(-318.785 -262.054)" fill="#fde01d"/>
          </g>
        </g>
      </g>
      <g id="Grupo_1013115" data-name="Grupo 1013115" transform="translate(50.181 34.862)">
        <path id="Trazado_664396" data-name="Trazado 664396" d="M377.206,262.054v3.991h3.781v5.132h3.991v-9.123Z" transform="translate(-377.206 -262.054)" fill="#fed330"/>
      </g>
      <g id="Grupo_1013116" data-name="Grupo 1013116" transform="translate(32.061 42.2)">
        <path id="Trazado_664397" data-name="Trazado 664397" d="M259.367,317.215H241v6.115a21.942,21.942,0,0,0,18.026,9.411c.114,0,.227,0,.341-.005Z" transform="translate(-241 -317.215)" fill="#6260d0"/>
      </g>
      <g id="Grupo_1013117" data-name="Grupo 1013117" transform="translate(50.181 42.2)">
        <path id="Trazado_664398" data-name="Trazado 664398" d="M377.206,317.215V332.74a21.941,21.941,0,0,0,17.932-9.409v-6.115H377.206Z" transform="translate(-377.206 -317.215)" fill="#5d519d"/>
      </g>
      <g id="Grupo_1013120" data-name="Grupo 1013120" transform="translate(48.092 53.646)">
        <g id="Grupo_1013119" data-name="Grupo 1013119">
          <g id="Grupo_1013118" data-name="Grupo 1013118">
            <path id="Trazado_664399" data-name="Trazado 664399" d="M361.5,403.25h3.991v7.817H361.5Z" transform="translate(-361.5 -403.25)" fill="#fde01d"/>
          </g>
        </g>
      </g>
      <path id="Trazado_664400" data-name="Trazado 664400" d="M377.206,403.25h1.9v7.817h-1.9Z" transform="translate(-327.025 -349.604)" fill="#fed330"/>
    </g>
  </g>
</svg>
