<svg xmlns="http://www.w3.org/2000/svg" xmlns:xlink="http://www.w3.org/1999/xlink" width="103" height="103" viewBox="0 0 103 103">
  <defs>
    <filter id="Elipse_4909" x="0" y="0" width="103" height="103" filterUnits="userSpaceOnUse">
      <feOffset dy="3" input="SourceAlpha"/>
      <feGaussianBlur stdDeviation="3" result="blur"/>
      <feFlood flood-opacity="0.161"/>
      <feComposite operator="in" in2="blur"/>
      <feComposite in="SourceGraphic"/>
    </filter>
  </defs>
  <g id="Grupo_1013291" data-name="Grupo 1013291" transform="translate(-171 -3784)">
    <g transform="matrix(1, 0, 0, 1, 171, 3784)" filter="url(#Elipse_4909)">
      <circle id="Elipse_4909-2" data-name="Elipse 4909" cx="42.5" cy="42.5" r="42.5" transform="translate(9 6)" fill="#0b481e"/>
    </g>
    <g id="finanzas-digitales" transform="translate(188.443 3798.443)">
      <path id="Trazado_664349" data-name="Trazado 664349" d="M68.113,34.057a33.99,33.99,0,0,1-12.552,26.41c-.374.3-1.533-.035-1.92.254-5.68,4.243-11.949,5.8-19.584,5.8A32.093,32.093,0,0,1,9.794,56.16c-.3-.326-1.261.449-1.552.111A34.057,34.057,0,1,1,68.113,34.057Z" fill="#00429c"/>
      <path id="Trazado_664350" data-name="Trazado 664350" d="M105.177,77.838A27.338,27.338,0,1,1,77.838,50.5,27.338,27.338,0,0,1,105.177,77.838Z" transform="translate(-43.782 -43.782)" fill="#0055ca"/>
      <path id="Trazado_664351" data-name="Trazado 664351" d="M76.068,89.91a1,1,0,0,1-1-1V83.137h-.45a1,1,0,0,1,0-2h1.448a1,1,0,0,1,1,1v6.773A1,1,0,0,1,76.068,89.91Zm5.961-1V82.139a1,1,0,0,0-1-1H79.584a1,1,0,0,0,0,2h.45v5.776a1,1,0,0,0,2,0Zm12.01,0V82.139a1,1,0,0,0-1-1H91.594a1,1,0,0,0,0,2h.45v5.776a1,1,0,0,0,2,0ZM89.5,87.092V83.96a2.956,2.956,0,1,0-5.913,0v3.132a2.956,2.956,0,1,0,5.913,0Zm-2-3.132v3.132a.961.961,0,1,1-1.922,0V83.96a.961.961,0,1,1,1.922,0Zm42.77,24.467v-6.773a1,1,0,0,0-1-1h-1.448a1,1,0,1,0,0,2h.45v5.776a1,1,0,1,0,2,0Zm-4.207-1.82v-3.132a2.956,2.956,0,1,0-5.913,0v3.132a2.956,2.956,0,0,0,5.913,0Zm-2-3.132v3.132a.961.961,0,0,1-1.922,0v-3.132a.961.961,0,1,1,1.922,0Z" transform="translate(-63.829 -70.227)" fill="#0077f0"/>
      <path id="Trazado_664352" data-name="Trazado 664352" d="M39.218,216.317A10.245,10.245,0,1,1,25.3,202.4a.161.161,0,0,1,.226.206,10.249,10.249,0,0,0,13.484,13.485A.161.161,0,0,1,39.218,216.317Z" transform="translate(-17.339 -175.456)" fill="#00c1fb"/>
      <path id="Trazado_664353" data-name="Trazado 664353" d="M66.769,203.244a10.2,10.2,0,0,1-1.269,4.942,10.247,10.247,0,0,1-13.917-13.917,10.247,10.247,0,0,1,15.186,8.975Z" transform="translate(-43.621 -167.325)" fill="#00d1fc"/>
      <path id="Trazado_664354" data-name="Trazado 664354" d="M43.682,209.148a8.1,8.1,0,1,0,8.182,8.1A8.148,8.148,0,0,0,43.682,209.148Zm0,14.2a6.1,6.1,0,1,1,6.186-6.1A6.15,6.15,0,0,1,43.682,223.343Zm0-10.9a3.113,3.113,0,0,0-3.11,3.11v3.378a3.11,3.11,0,1,0,6.22,0v-3.378A3.113,3.113,0,0,0,43.682,212.444Zm1.114,6.488a1.114,1.114,0,1,1-2.229,0v-3.378a1.114,1.114,0,1,1,2.229,0Z" transform="translate(-30.777 -181.324)" fill="#c9f0ff"/>
      <path id="Trazado_664355" data-name="Trazado 664355" d="M298.089,50v53.841H281.027V50Z" transform="translate(-243.641 -43.348)" fill="#fa0"/>
      <path id="Trazado_664356" data-name="Trazado 664356" d="M252.214,50v57.2h-5.423V50Z" transform="translate(-213.96 -43.348)" fill="#ff9500"/>
      <path id="Trazado_664357" data-name="Trazado 664357" d="M245.413,31.33v3.991a1.33,1.33,0,0,1-1.33,1.33h-5.96a1.33,1.33,0,0,1-1.33-1.33V31.33a1.33,1.33,0,0,1,1.33-1.33h5.96A1.33,1.33,0,0,1,245.413,31.33Zm-1.33,6.652h-5.96a1.33,1.33,0,0,0-1.33,1.33V43.3a1.33,1.33,0,0,0,1.33,1.33h5.96a1.33,1.33,0,0,0,1.33-1.33V39.312A1.33,1.33,0,0,0,244.083,37.982Zm0,7.982h-5.96a1.33,1.33,0,0,0-1.33,1.33v3.991a1.33,1.33,0,0,0,1.33,1.33h5.96a1.33,1.33,0,0,0,1.33-1.33V47.294A1.33,1.33,0,0,0,244.083,45.964Zm0,7.982h-5.96a1.33,1.33,0,0,0-1.33,1.33v3.991a1.33,1.33,0,0,0,1.33,1.33h5.96a1.33,1.33,0,0,0,1.33-1.33V55.276A1.33,1.33,0,0,0,244.083,53.946Zm0,7.982h-5.96a1.33,1.33,0,0,0-1.33,1.33v3.991a1.33,1.33,0,0,0,1.33,1.33h5.96a1.33,1.33,0,0,0,1.33-1.33V63.258A1.33,1.33,0,0,0,244.083,61.928Zm0,7.982h-5.96a1.33,1.33,0,0,0-1.33,1.33v3.991a1.33,1.33,0,0,0,1.33,1.33h5.96a1.33,1.33,0,0,0,1.33-1.33V71.24A1.33,1.33,0,0,0,244.083,69.91Zm0,7.982h-5.96a1.33,1.33,0,0,0-1.33,1.33v3.991a1.33,1.33,0,0,0,1.33,1.33h5.96a1.33,1.33,0,0,0,1.33-1.33V79.222A1.33,1.33,0,0,0,244.083,77.892Zm0,7.982h-5.96a1.33,1.33,0,0,0-1.33,1.33V91.2a1.33,1.33,0,0,0,1.33,1.33h5.96a1.33,1.33,0,0,0,1.33-1.33V87.2A1.33,1.33,0,0,0,244.083,85.874Z" transform="translate(-205.291 -26.009)" fill="#fa0"/>
      <path id="Trazado_664358" data-name="Trazado 664358" d="M292.626,31.33v3.991a1.33,1.33,0,0,1-1.33,1.33H274.521a1.33,1.33,0,0,1-1.33-1.33V31.33a1.33,1.33,0,0,1,1.33-1.33H291.3A1.33,1.33,0,0,1,292.626,31.33Zm-1.33,6.652H274.521a1.33,1.33,0,0,0-1.33,1.33V43.3a1.33,1.33,0,0,0,1.33,1.33H291.3a1.33,1.33,0,0,0,1.33-1.33V39.312A1.33,1.33,0,0,0,291.3,37.982Zm0,7.982H274.521a1.33,1.33,0,0,0-1.33,1.33v3.991a1.33,1.33,0,0,0,1.33,1.33H291.3a1.33,1.33,0,0,0,1.33-1.33V47.294A1.33,1.33,0,0,0,291.3,45.964Zm0,7.982H274.521a1.33,1.33,0,0,0-1.33,1.33v3.991a1.33,1.33,0,0,0,1.33,1.33H291.3a1.33,1.33,0,0,0,1.33-1.33V55.276A1.33,1.33,0,0,0,291.3,53.946Zm0,7.982H274.521a1.33,1.33,0,0,0-1.33,1.33v3.991a1.33,1.33,0,0,0,1.33,1.33H291.3a1.33,1.33,0,0,0,1.33-1.33V63.258A1.33,1.33,0,0,0,291.3,61.928Zm0,7.982H274.521a1.33,1.33,0,0,0-1.33,1.33v3.991a1.33,1.33,0,0,0,1.33,1.33H291.3a1.33,1.33,0,0,0,1.33-1.33V71.24A1.33,1.33,0,0,0,291.3,69.91Zm0,7.982H274.521a1.33,1.33,0,0,0-1.33,1.33v3.991a1.33,1.33,0,0,0,1.33,1.33H291.3a1.33,1.33,0,0,0,1.33-1.33V79.222A1.33,1.33,0,0,0,291.3,77.892Zm0,7.982H274.521c-.735,0,11.853,4.54,12.069,4.428a34.1,34.1,0,0,0,5.818-3.827A1.329,1.329,0,0,0,291.3,85.874Z" transform="translate(-236.847 -26.009)" fill="#ffc143"/>
      <path id="Trazado_664359" data-name="Trazado 664359" d="M96.079,160h12.977a.665.665,0,0,1,.665.665v1.145A6.254,6.254,0,0,1,104.393,168c10.577,4.264,18.261,17.109,18.261,32.291v.067a6.416,6.416,0,0,1-.576,2.654,34.086,34.086,0,0,1-36.911-3.6,4.565,4.565,0,0,1-1.636-4.5c2.445-11.6,8.944-23.578,17.211-26.911a6.254,6.254,0,0,1-5.329-6.185v-1.145A.665.665,0,0,1,96.079,160Z" transform="translate(-72.335 -138.715)" fill="#00d3b4"/>
      <path id="Trazado_664360" data-name="Trazado 664360" d="M82.772,168.954c-9.308,4.917-15.929,16.671-16.191,30.482a34.264,34.264,0,0,1-4.626-4.449C63.5,182.174,70.578,171.753,79.9,168a6.254,6.254,0,0,1-5.329-6.185v-1.145a.665.665,0,0,1,.665-.665H80.17a.665.665,0,0,0-.665.665v1.145a6.251,6.251,0,0,0,3.266,5.494A.935.935,0,0,1,82.772,168.954Z" transform="translate(-53.713 -138.715)" fill="#00b7a0"/>
      <path id="Trazado_664361" data-name="Trazado 664361" d="M158.487,301.779a10.952,10.952,0,1,1-10.951-10.8A10.877,10.877,0,0,1,158.487,301.779Z" transform="translate(-118.414 -252.268)" fill="#00b7a0"/>
      <path id="Trazado_664362" data-name="Trazado 664362" d="M140.878,222.668a11.823,11.823,0,1,0,11.973,11.822A11.912,11.912,0,0,0,140.878,222.668Zm8.526,16.921h-3.711a25.292,25.292,0,0,0,.467-4.1H150.8A9.661,9.661,0,0,1,149.4,239.589Zm-17.052-10.2h3.711a25.291,25.291,0,0,0-.467,4.1h-4.644A9.659,9.659,0,0,1,132.352,229.391Zm12.5-2.923a10.9,10.9,0,0,0-.567-1.216,10.022,10.022,0,0,1,3.495,2.143h-2.6Q145.024,226.913,144.847,226.468Zm-1.786.928H138.7c.662-1.749,1.5-2.731,2.183-2.731S142.4,225.646,143.061,227.4Zm-5.468,6.1a22.432,22.432,0,0,1,.513-4.1h5.546a22.433,22.433,0,0,1,.513,4.1Zm6.571,2a22.432,22.432,0,0,1-.513,4.1h-5.546a22.432,22.432,0,0,1-.513-4.1Zm-7.255-9.02q-.177.445-.332.928h-2.6a10.021,10.021,0,0,1,3.495-2.143A10.865,10.865,0,0,0,136.909,226.468Zm-1.313,9.02a25.305,25.305,0,0,0,.467,4.1h-3.711a9.659,9.659,0,0,1-1.4-4.1Zm.982,6.1q.155.482.332.928a10.9,10.9,0,0,0,.567,1.216,10.021,10.021,0,0,1-3.495-2.143h2.6Zm2.117,0h4.366c-.662,1.749-1.5,2.731-2.183,2.731S139.357,243.334,138.7,241.585Zm6.152.928q.177-.445.332-.928h2.6a10.02,10.02,0,0,1-3.495,2.143A10.888,10.888,0,0,0,144.847,242.512Zm1.313-9.02a25.3,25.3,0,0,0-.467-4.1H149.4a9.659,9.659,0,0,1,1.4,4.1Zm-.809-18.133h-8.946a1,1,0,1,1,0-2h8.946a1,1,0,1,1,0,2Z" transform="translate(-111.756 -184.979)" fill="#009a8e"/>
      <path id="Trazado_664363" data-name="Trazado 664363" d="M127.34,408.472a8.116,8.116,0,1,1-11.025-11.025.128.128,0,0,1,.179.163,8.119,8.119,0,0,0,10.683,10.682A.128.128,0,0,1,127.34,408.472Z" transform="translate(-97.2 -344.559)" fill="#fa0"/>
      <path id="Trazado_664364" data-name="Trazado 664364" d="M149.167,398.116a8.079,8.079,0,0,1-1.005,3.915,8.117,8.117,0,0,1-11.025-11.025,8.118,8.118,0,0,1,12.03,7.11Z" transform="translate(-118.022 -338.118)" fill="#ffc143"/>
      <g id="Grupo_1013100" data-name="Grupo 1013100" transform="translate(16.341 13.31)">
        <path id="Trazado_664365" data-name="Trazado 664365" d="M129.526,414.475a6.621,6.621,0,1,1,6.689-6.621A6.662,6.662,0,0,1,129.526,414.475Zm0-11.246a4.626,4.626,0,1,0,4.693,4.625A4.665,4.665,0,0,0,129.526,403.23Zm1,6.861v-4.473a1,1,0,0,0-2,0v4.473a1,1,0,0,0,2,0Z" transform="translate(-122.837 -361.166)" fill="#ffe7bf"/>
        <path id="Trazado_664366" data-name="Trazado 664366" d="M323.777,108.869l-2.069-2.069a.532.532,0,0,1,0-.753l2.069-2.069a.532.532,0,0,1,.753,0l2.069,2.069a.532.532,0,0,1,0,.753l-2.069,2.069A.532.532,0,0,1,323.777,108.869Zm-5.078-5,1.457-1.457a.532.532,0,0,0,0-.753l-1.457-1.457a.532.532,0,0,0-.753,0l-1.457,1.457a.532.532,0,0,0,0,.753l1.457,1.457A.532.532,0,0,0,318.7,103.872Z" transform="translate(-290.592 -100.049)" fill="#ffe7bf"/>
      </g>
    </g>
  </g>
</svg>
