<svg xmlns="http://www.w3.org/2000/svg" width="95" height="95" viewBox="0 0 95 95">
  <g id="Grupo_1013292" data-name="Grupo 1013292" transform="translate(-745 -11905.213)">
    <circle id="Elipse_7755" data-name="Elipse 7755" cx="47.5" cy="47.5" r="47.5" transform="translate(745 11905.213)" fill="#ffa686"/>
    <path id="Trazado_664602" data-name="Trazado 664602" d="M19.547,37.132,32.9,41.624v7.5L11.32,40.33V33.836L32.9,25.047v7.471Zm42.993.342q0,7.2-3.235,11.108t-9.119,3.906q-5.933,0-9.18-3.931T37.76,37.474V30.979q0-7.2,3.235-11.108t9.143-3.906q5.908,0,9.155,3.931T62.541,31ZM54.313,29.93a12.678,12.678,0,0,0-1-5.725,3.346,3.346,0,0,0-3.174-1.892A3.266,3.266,0,0,0,47.05,24.07a11.943,11.943,0,0,0-1.038,5.322v9.082a12.774,12.774,0,0,0,1,5.823,3.359,3.359,0,0,0,3.174,1.843,3.313,3.313,0,0,0,3.1-1.794,12.2,12.2,0,0,0,1.025-5.627Z" transform="translate(755.082 11922.998)" fill="#12263f"/>
  </g>
</svg>
