<svg xmlns="http://www.w3.org/2000/svg" width="95" height="95" viewBox="0 0 95 95">
  <g id="Grupo_1013293" data-name="Grupo 1013293" transform="translate(-1168 -11905.213)">
    <circle id="Elipse_7756" data-name="Elipse 7756" cx="47.5" cy="47.5" r="47.5" transform="translate(1168 11905.213)" fill="#ffc107"/>
    <path id="Trazado_664603" data-name="Trazado 664603" d="M34.037,34.373H11.43V28.025H34.037Zm0,10.718H11.43V38.743H34.037Zm30.4-7.617q0,7.2-3.235,11.108t-9.119,3.906q-5.933,0-9.18-3.931T39.652,37.474V30.979q0-7.2,3.235-11.108t9.143-3.906q5.908,0,9.155,3.931T64.433,31ZM56.205,29.93a12.678,12.678,0,0,0-1-5.725,3.346,3.346,0,0,0-3.174-1.892,3.266,3.266,0,0,0-3.088,1.758A11.943,11.943,0,0,0,47.9,29.393v9.082a12.774,12.774,0,0,0,1,5.823,3.359,3.359,0,0,0,3.174,1.843,3.313,3.313,0,0,0,3.1-1.794,12.2,12.2,0,0,0,1.025-5.627Z" transform="translate(1174.082 11924.068)" fill="#12263f"/>
  </g>
</svg>
