<svg xmlns="http://www.w3.org/2000/svg" width="95" height="95" viewBox="0 0 95 95">
  <g id="Grupo_1013291" data-name="Grupo 1013291" transform="translate(-325 -11905.213)">
    <circle id="Elipse_7754" data-name="Elipse 7754" cx="47.5" cy="47.5" r="47.5" transform="translate(325 11905.213)" fill="#0b481e"/>
    <path id="Trazado_664601" data-name="Trazado 664601" d="M26.115,37.059,12.833,32.542V25.071l21.46,8.789v6.494l-21.46,8.789V41.673Zm36.5.415q0,7.2-3.235,11.108T50.26,52.488q-5.933,0-9.18-3.931T37.833,37.474V30.979q0-7.2,3.235-11.108t9.143-3.906q5.908,0,9.155,3.931T62.614,31ZM54.386,29.93a12.678,12.678,0,0,0-1-5.725,3.346,3.346,0,0,0-3.174-1.892,3.266,3.266,0,0,0-3.088,1.758,11.943,11.943,0,0,0-1.038,5.322v9.082a12.774,12.774,0,0,0,1,5.823,3.359,3.359,0,0,0,3.174,1.843,3.313,3.313,0,0,0,3.1-1.794,12.2,12.2,0,0,0,1.025-5.627Z" transform="translate(335.082 11923.068)" fill="#fff"/>
  </g>
</svg>
