<svg xmlns="http://www.w3.org/2000/svg" width="39.331" height="27.027" viewBox="0 0 39.331 27.027">
  <path id="Trazado_664606" data-name="Trazado 664606" d="M19.494-10.876q0,5.456-2.258,8.347A7.883,7.883,0,0,1,10.623.361,7.938,7.938,0,0,1,4.047-2.475Q1.771-5.312,1.716-10.6v-4.842q0-5.51,2.285-8.365a7.942,7.942,0,0,1,6.585-2.854,7.949,7.949,0,0,1,6.576,2.827q2.276,2.827,2.331,8.121ZM14.272-16.2a9.632,9.632,0,0,0-.894-4.765,3.022,3.022,0,0,0-2.791-1.492,2.968,2.968,0,0,0-2.719,1.42,9.014,9.014,0,0,0-.93,4.44v6.4a10.111,10.111,0,0,0,.876,4.783,2.982,2.982,0,0,0,2.809,1.564,2.932,2.932,0,0,0,2.764-1.5,9.869,9.869,0,0,0,.885-4.593ZM41.047,0H23.017V-3.577l8.509-9.069a20.992,20.992,0,0,0,2.593-3.342,5.37,5.37,0,0,0,.84-2.71,4.018,4.018,0,0,0-.885-2.755,3.2,3.2,0,0,0-2.529-1,3.446,3.446,0,0,0-2.791,1.219,4.831,4.831,0,0,0-1.021,3.207H22.493a8.624,8.624,0,0,1,1.147-4.39,8.086,8.086,0,0,1,3.243-3.116,9.857,9.857,0,0,1,4.751-1.129,9.333,9.333,0,0,1,6.314,1.951A6.9,6.9,0,0,1,40.2-19.2a8.844,8.844,0,0,1-1.012,3.975,22.088,22.088,0,0,1-3.469,4.715l-5.98,6.305h11.31Z" transform="translate(-1.716 26.666)" fill="#cee284"/>
</svg>
