<svg id="Grupo_1013024" data-name="Grupo 1013024" xmlns="http://www.w3.org/2000/svg" xmlns:xlink="http://www.w3.org/1999/xlink" width="294" height="201.284" viewBox="0 0 294 201.284">
  <defs>
    <clipPath id="clip-path">
      <rect id="Rectángulo_351422" data-name="Rectángulo 351422" width="294" height="201.284" fill="none"/>
    </clipPath>
    <clipPath id="clip-path-3">
      <rect id="Rectángulo_351406" data-name="Rectángulo 351406" width="9.461" height="17.249" fill="none"/>
    </clipPath>
    <clipPath id="clip-path-4">
      <rect id="Rectángulo_351407" data-name="Rectángulo 351407" width="4.152" height="12.553" fill="none"/>
    </clipPath>
    <clipPath id="clip-path-5">
      <rect id="Rectángulo_351408" data-name="Rectángulo 351408" width="28.769" height="37.171" fill="none"/>
    </clipPath>
    <clipPath id="clip-path-6">
      <rect id="Rectángulo_351409" data-name="Rectángulo 351409" width="18.852" height="32.248" fill="none"/>
    </clipPath>
    <clipPath id="clip-path-7">
      <rect id="Rectángulo_351410" data-name="Rectángulo 351410" width="11.094" height="41.002" fill="none"/>
    </clipPath>
    <clipPath id="clip-path-8">
      <rect id="Rectángulo_351411" data-name="Rectángulo 351411" width="1.944" height="32.512" fill="none"/>
    </clipPath>
    <clipPath id="clip-path-9">
      <rect id="Rectángulo_351412" data-name="Rectángulo 351412" width="24.381" height="30.842" fill="none"/>
    </clipPath>
    <clipPath id="clip-path-10">
      <rect id="Rectángulo_351413" data-name="Rectángulo 351413" width="17.323" height="20.728" fill="none"/>
    </clipPath>
    <clipPath id="clip-path-11">
      <rect id="Rectángulo_351414" data-name="Rectángulo 351414" width="11.544" height="25.057" fill="none"/>
    </clipPath>
    <clipPath id="clip-path-12">
      <rect id="Rectángulo_351415" data-name="Rectángulo 351415" width="2.393" height="3.958" fill="none"/>
    </clipPath>
    <clipPath id="clip-path-13">
      <rect id="Rectángulo_351416" data-name="Rectángulo 351416" width="36.03" height="48.65" fill="none"/>
    </clipPath>
    <clipPath id="clip-path-14">
      <rect id="Rectángulo_351417" data-name="Rectángulo 351417" width="19.788" height="31.821" fill="none"/>
    </clipPath>
    <clipPath id="clip-path-15">
      <rect id="Rectángulo_351418" data-name="Rectángulo 351418" width="7.549" height="43.015" fill="none"/>
    </clipPath>
    <clipPath id="clip-path-16">
      <rect id="Rectángulo_351419" data-name="Rectángulo 351419" width="19.827" height="42.174" fill="none"/>
    </clipPath>
    <clipPath id="clip-path-17">
      <rect id="Rectángulo_351420" data-name="Rectángulo 351420" width="3.27" height="4.209" fill="none"/>
    </clipPath>
  </defs>
  <g id="Grupo_1013023" data-name="Grupo 1013023" clip-path="url(#clip-path)">
    <g id="Grupo_1013022" data-name="Grupo 1013022">
      <g id="Grupo_1013021" data-name="Grupo 1013021" clip-path="url(#clip-path)">
        <path id="Trazado_663975" data-name="Trazado 663975" d="M408.693,63.766s-.717-3.151,3.532-3.389c0,0-1.066-3.39,3.835-7.337s9.613-5.22,11.968-4.584a6.9,6.9,0,0,1,3.693,3.12s8.594-1.146,11.9,6.239c0,0,8.022.955,9.676,2.546s.509,2.546.509,2.546,3.311.7,3.438,1.719S451.9,68.35,445.7,67.682c0,0-2.482,3.056-9.454,2.006,0,0-6.419,2.769-10.514-1.624,0,0-19.852,1.337-21.57.318s1.559-5.156,4.536-4.615" transform="translate(-171.17 -20.48)" fill="#eaeeef"/>
        <path id="Trazado_663976" data-name="Trazado 663976" d="M251.465,167.975s-9.353,1.427-9.274,3.012,15.721,3.884,20.027,2.378c0,0,3.91,3.038,10.675,2.51s9.512-4.544,9.512-4.544,15.277-.157,21.732-1.663a1.806,1.806,0,0,0,1.358-2.116c-.416-1.976-2.09-4.87-8.452-4.015,0,0-5.073-12.92-21.718-7.53,0,0-8.878-3.647-14.427,4.756,0,0-13.95-.158-9.432,7.213" transform="translate(-102.694 -65.592)" fill="#eaeeef"/>
        <path id="Trazado_663977" data-name="Trazado 663977" d="M20.378,229.265s-.123-5.945-.493-7.9-1.489-8.085.973-8.561,3.625,4.386,4.787,5.6,2.959,3.594,3.118,6.13-2.448,7.345-8.385,4.729" transform="translate(-8.187 -90.219)" fill="#c8d6db"/>
        <g id="Grupo_1012978" data-name="Grupo 1012978" transform="translate(11.121 122.552)" opacity="0.66" style="mix-blend-mode: multiply;isolation: isolate">
          <g id="Grupo_1012977" data-name="Grupo 1012977">
            <g id="Grupo_1012976" data-name="Grupo 1012976" clip-path="url(#clip-path-3)">
              <path id="Trazado_663978" data-name="Trazado 663978" d="M20.378,229.265s-.123-5.945-.493-7.9-1.489-8.085.973-8.561,3.625,4.386,4.787,5.6,2.959,3.594,3.118,6.13-2.448,7.345-8.385,4.729" transform="translate(-19.308 -212.772)" fill="#c8d6db"/>
            </g>
          </g>
        </g>
        <g id="Grupo_1012981" data-name="Grupo 1012981" transform="translate(14.082 127.506)" opacity="0.36">
          <g id="Grupo_1012980" data-name="Grupo 1012980">
            <g id="Grupo_1012979" data-name="Grupo 1012979" clip-path="url(#clip-path-4)">
              <path id="Trazado_663979" data-name="Trazado 663979" d="M24.9,221.819s3.258,8.857,3.637,12.039" transform="translate(-24.639 -221.562)" fill="none" stroke="#7ea1a5" stroke-linecap="round" stroke-linejoin="round" stroke-width="0.894"/>
            </g>
          </g>
        </g>
        <path id="Trazado_663980" data-name="Trazado 663980" d="M9.5,234.119s-2.537-6.341-2.338-9.472S7.951,221,9.5,221.674a6,6,0,0,1,3.527,5.112s3.078,2.339,3.871,4.294,3.329,2.589,3.858,1.427.793-6.817,1.955-8.508a6.122,6.122,0,0,0,1.11-4.122c.053-1.48,1.585-4.756,4.175-3.012s2.114,5.605,2.351,8.378.661,6.577,1.718,7.37,4.171,5.707,3.83,9.089-1.5,11.837-7.845,11.837S8.915,243.974,9.5,234.119" transform="translate(-3.03 -91.744)" fill="#c8d6db"/>
        <g id="Grupo_1012984" data-name="Grupo 1012984" transform="translate(4.117 124.623)" opacity="0.44" style="mix-blend-mode: multiply;isolation: isolate">
          <g id="Grupo_1012983" data-name="Grupo 1012983">
            <g id="Grupo_1012982" data-name="Grupo 1012982" clip-path="url(#clip-path-5)">
              <path id="Trazado_663981" data-name="Trazado 663981" d="M9.5,234.119s-2.537-6.341-2.338-9.472S7.951,221,9.5,221.674a6,6,0,0,1,3.527,5.112s3.078,2.339,3.871,4.294,3.329,2.589,3.858,1.427.793-6.817,1.955-8.508a6.122,6.122,0,0,0,1.11-4.122c.053-1.48,1.585-4.756,4.175-3.012s2.114,5.605,2.351,8.378.661,6.577,1.718,7.37,4.171,5.707,3.83,9.089-1.5,11.837-7.845,11.837S8.915,243.974,9.5,234.119" transform="translate(-7.147 -216.367)" fill="#c8d6db"/>
            </g>
          </g>
        </g>
        <path id="Trazado_663982" data-name="Trazado 663982" d="M47.419,254.432a53.285,53.285,0,0,1,1.585-9.3c1.189-4.017,2.457-5.286,0-8.456s-1.109-5.945.634-7.134,2.43-4.994,1.492-7.055,1.2-4.518,3.819-3.646,2.457,5.39,1.427,7.768-.714,5.628,1.109,7.372.714,6.341,0,8.323.639,4.439.994,6.579S56.3,255.938,56.3,258l-6.975,1.665Z" transform="translate(-20.107 -92.717)" fill="#c8d6db"/>
        <g id="Grupo_1012987" data-name="Grupo 1012987" transform="translate(6.526 127.056)" opacity="0.36">
          <g id="Grupo_1012986" data-name="Grupo 1012986">
            <g id="Grupo_1012985" data-name="Grupo 1012985" clip-path="url(#clip-path-6)">
              <path id="Trazado_663983" data-name="Trazado 663983" d="M11.777,227.3s7.659,18.244,11.15,25.47l7.186-2.431s-.991-26.685-1.532-29.3" transform="translate(-11.519 -220.782)" fill="none" stroke="#7ea1a5" stroke-linecap="round" stroke-linejoin="round" stroke-width="0.894"/>
            </g>
          </g>
        </g>
        <g id="Grupo_1012990" data-name="Grupo 1012990" transform="translate(27.313 125.944)" opacity="0.22" style="mix-blend-mode: multiply;isolation: isolate">
          <g id="Grupo_1012989" data-name="Grupo 1012989">
            <g id="Grupo_1012988" data-name="Grupo 1012988" clip-path="url(#clip-path-7)">
              <path id="Trazado_663984" data-name="Trazado 663984" d="M47.419,254.432a53.285,53.285,0,0,1,1.585-9.3c1.189-4.017,2.457-5.286,0-8.456s-1.109-5.945.634-7.134,2.43-4.994,1.492-7.055,1.2-4.518,3.819-3.646,2.457,5.39,1.427,7.768-.714,5.628,1.109,7.372.714,6.341,0,8.323.639,4.439.994,6.579S56.3,255.938,56.3,258l-6.975,1.665Z" transform="translate(-47.419 -218.661)" fill="#c8d6db"/>
            </g>
          </g>
        </g>
        <g id="Grupo_1012993" data-name="Grupo 1012993" transform="translate(32.522 134.692)" opacity="0.36">
          <g id="Grupo_1012992" data-name="Grupo 1012992">
            <g id="Grupo_1012991" data-name="Grupo 1012991" clip-path="url(#clip-path-8)">
              <path id="Trazado_663985" data-name="Trazado 663985" d="M58.34,234.3s-1.826,5.1-1.349,13.99.843,15.629.026,18.007" transform="translate(-56.654 -234.039)" fill="none" stroke="#7ea1a5" stroke-linecap="round" stroke-linejoin="round" stroke-width="0.894"/>
            </g>
          </g>
        </g>
        <path id="Trazado_663986" data-name="Trazado 663986" d="M19.7,270.859s-5.505-1.665-7.033-4.439-2.4-8.64-5.016-10.621-5.707-4.835-6.183-8.323c0,0-2.7-3.567-.793-6.262s5.707-.4,6.42,2.537.793,5.073,3.567,6.024,2.536,6.658,8.243,6.975,5.469,12.762,5.469,12.762Z" transform="translate(0 -101.772)" fill="#c8d6db"/>
        <g id="Grupo_1012996" data-name="Grupo 1012996" transform="translate(0 138.245)" opacity="0.22" style="mix-blend-mode: multiply;isolation: isolate">
          <g id="Grupo_1012995" data-name="Grupo 1012995">
            <g id="Grupo_1012994" data-name="Grupo 1012994" clip-path="url(#clip-path-9)">
              <path id="Trazado_663987" data-name="Trazado 663987" d="M19.7,270.859s-5.505-1.665-7.033-4.439-2.4-8.64-5.016-10.621-5.707-4.835-6.183-8.323c0,0-2.7-3.567-.793-6.262s5.707-.4,6.42,2.537.793,5.073,3.567,6.024,2.536,6.658,8.243,6.975,5.469,12.762,5.469,12.762Z" transform="translate(0 -240.017)" fill="#c8d6db"/>
            </g>
          </g>
        </g>
        <g id="Grupo_1012999" data-name="Grupo 1012999" transform="translate(4.782 144.812)" opacity="0.36">
          <g id="Grupo_1012998" data-name="Grupo 1012998">
            <g id="Grupo_1012997" data-name="Grupo 1012997" clip-path="url(#clip-path-10)">
              <path id="Trazado_663988" data-name="Trazado 663988" d="M8.749,251.866a30.467,30.467,0,0,1,3.488,3.963c4.149,5.44,10.827,14.6,13.321,16.249" transform="translate(-8.492 -251.608)" fill="none" stroke="#7ea1a5" stroke-linecap="round" stroke-linejoin="round" stroke-width="0.894"/>
            </g>
          </g>
        </g>
        <path id="Trazado_663989" data-name="Trazado 663989" d="M35.095,268.851s-5.033-1.222-5.9-4.535.079-6.563,0-7.038-3.25-1.744-4.6-4.28-.476-6.183-.714-8.561a16.525,16.525,0,0,0-1.823-5.469c-.4-.793,1.268-3.567,4.518-1.347s3.091,7.689,3.171,9.512,3.567,2.933,4.6,4.6,1.9,4.6,1.268,6.42c0,0,6.5,4.122,4.28,9.036Z" transform="translate(-9.328 -100.399)" fill="#c8d6db"/>
        <g id="Grupo_1013002" data-name="Grupo 1013002" transform="translate(16.502 142.951)" opacity="0.36">
          <g id="Grupo_1013001" data-name="Grupo 1013001">
            <g id="Grupo_1013000" data-name="Grupo 1013000" clip-path="url(#clip-path-11)">
              <path id="Trazado_663990" data-name="Trazado 663990" d="M29.1,248.635s5.4,12.165,7.621,16.525a62,62,0,0,1,3.407,8.018" transform="translate(-28.84 -248.378)" fill="none" stroke="#7ea1a5" stroke-linecap="round" stroke-linejoin="round" stroke-width="0.894"/>
            </g>
          </g>
        </g>
        <path id="Trazado_663991" data-name="Trazado 663991" d="M29.42,289.707l20.373-5.093a.783.783,0,0,1,.955.944,10.328,10.328,0,0,0-.291,3.355c.191,2.487,6.271,19.283,7.422,22.447a3.525,3.525,0,0,1,.221,1.2c.007,2-.627,7.757-8.065,9.014-7.65,1.293-11.432-.954-13.044-2.476a3.839,3.839,0,0,1-1.164-2.214c-.657-4.252-3.261-20.843-4.181-22.684a26.623,26.623,0,0,0-2.462-3.829.42.42,0,0,1,.237-.661" transform="translate(-12.338 -120.672)" fill="#e1edf4"/>
        <path id="Trazado_663992" data-name="Trazado 663992" d="M41.227,312.968A42.01,42.01,0,0,1,42.337,322c.237,6.024,1.427,8.085,2.932,8.561" transform="translate(-17.481 -132.705)" fill="none" stroke="#c8dde8" stroke-linecap="round" stroke-miterlimit="10" stroke-width="1.341"/>
        <path id="Trazado_663993" data-name="Trazado 663993" d="M72.579,307.393l-7.356,8.5s5.041,8.338,5.041,9.29-.19,1.522-.761,1.712L50.949,312.049a1.821,1.821,0,0,1-.285-2.558l8.282-10.373Z" transform="translate(-21.314 -126.832)" fill="#ffc107"/>
        <path id="Trazado_663994" data-name="Trazado 663994" d="M207.761,314.467l2.115,5.378s11.54,3.021,11.782,3.444.907,1.632,0,2.055l-26.835,8.716a1.586,1.586,0,0,1-2.006-1.043l-4.149-13.5Z" transform="translate(-79.999 -133.34)" fill="#ffc107"/>
        <path id="Trazado_663995" data-name="Trazado 663995" d="M230.155,49.21s7.424-13.633,7.636-14.268a68.737,68.737,0,0,0,1.509-7.362.5.5,0,0,1,.483-.453c.646-.033,1.78.037,2.078.892v2.4a6.126,6.126,0,0,1,.528,1.453,26.065,26.065,0,0,1-1.453,9.8,14.591,14.591,0,0,1,1.189,4.677c0,1.981-2.061,4.756-4.2,5.47s-5.44-2.577-7.768-2.616" transform="translate(-97.59 -11.5)" fill="#f9c1c0"/>
        <path id="Trazado_663996" data-name="Trazado 663996" d="M70.176,169.6s-.37,5.813,1.48,8.613a18.648,18.648,0,0,0,.634,8.614,1.6,1.6,0,0,0,1.995.713s.119.991,1.665.753a2.238,2.238,0,0,0,2.814.594s.435.846,1.585.245,2.774-9.36,2.774-9.36.37,5.494,1.85,5.522c2.8.053.264-11.414-.687-13.95Z" transform="translate(-29.743 -71.915)" fill="#f9c1c0"/>
        <path id="Trazado_663997" data-name="Trazado 663997" d="M92.353,164.487s-3.9,3.474-1.572,11.3c0,0-4.65,33.4-5.073,34.771s-27.161,29.275-27.161,29.275S71.651,256.421,99.975,259.8s54.957-9.089,54.957-9.089-17.755-62.672-28.06-80.533c0,0,.793-3.435.159-4.968Z" transform="translate(-24.825 -69.746)" fill="#0b253d"/>
        <path id="Trazado_663998" data-name="Trazado 663998" d="M97.018,84.59S81.8,92.2,76.726,96.639s-8.455,28.112-8.455,28.112l15.747,2.219s2.536-11.2,3.7-18.178l8.349-3.91v11.1a3.375,3.375,0,0,0-2.008,2.722c-.2,2.022,2.418,2.576,2.418,2.576L131.26,123.8s1.8,1,2.431-1.691-2.167-5.232-2.167-5.232,4.386-9.194,4.545-9.934,0-5.073,0-5.073,15.06-3.329,22.987-6.606,10.569-12.259,12.154-16.381a82.337,82.337,0,0,0,2.906-11.547l-14.347-4.756-5.786,16.091-18.833,4.235a7.8,7.8,0,0,1-1.835.189l-2.372-.038Z" transform="translate(-28.948 -26.536)" fill="#ff90c8"/>
        <path id="Trazado_663999" data-name="Trazado 663999" d="M181.394,71.71a16.917,16.917,0,0,1,1.718,2.061c.238.5-2.378,1.9-2.378,1.9Z" transform="translate(-76.635 -30.407)" fill="#f9c1c0"/>
        <g id="Grupo_1013005" data-name="Grupo 1013005" transform="translate(104.098 41.303)" opacity="0.33" style="mix-blend-mode: multiply;isolation: isolate">
          <g id="Grupo_1013004" data-name="Grupo 1013004">
            <g id="Grupo_1013003" data-name="Grupo 1013003" clip-path="url(#clip-path-12)">
              <path id="Trazado_664000" data-name="Trazado 664000" d="M181.394,71.71a16.917,16.917,0,0,1,1.718,2.061c.238.5-2.378,1.9-2.378,1.9Z" transform="translate(-180.733 -71.71)" fill="#f9c1c0"/>
            </g>
          </g>
        </g>
        <path id="Trazado_664001" data-name="Trazado 664001" d="M153.8,84.641s9.406.581,12.313-5.337l-6.923-.37V75.605s8.243-1.533,9.723-9.512a13.125,13.125,0,0,0-3.963-12.365L151.208,63.4Z" transform="translate(-64.115 -22.782)" fill="#f9c1c0"/>
        <path id="Trazado_664002" data-name="Trazado 664002" d="M159.593,72.356s1.49-.014,1.891.76" transform="translate(-67.671 -30.68)" fill="none" stroke="#e26060" stroke-linecap="round" stroke-miterlimit="10" stroke-width="0.894"/>
        <path id="Trazado_664003" data-name="Trazado 664003" d="M160.9,69.756a3.37,3.37,0,0,1,1.117,3.042" transform="translate(-68.226 -29.578)" fill="none" stroke="#e26060" stroke-linecap="round" stroke-miterlimit="10" stroke-width="0.894"/>
        <path id="Trazado_664004" data-name="Trazado 664004" d="M175.634,56.49s.871.141.926,1.519a.4.4,0,0,1-.512.39,3.362,3.362,0,0,0-2.821.411Z" transform="translate(-73.452 -23.953)" fill="#79154d"/>
        <path id="Trazado_664005" data-name="Trazado 664005" d="M129,59.762s8.006-2.3,10.7-9.115c0,0,3.409-5.707-3.408-7.768s-17.465,1.612-23.489,5.416-15.351,8.772-23.277,7.742c0,0-1.295,5.311,4.888,5.311,0,0-9.036,4.756-4.175,10.939A10.73,10.73,0,0,1,96,69.644s-.37,2.484-3.382,5.02c0,0,1.427,3.488,6.183,2.272s5.76-.158,5.76-.158-2.431,4.227,1.533,7.16c0,0,.4-1.823,6.9-.713s14.427.238,17.122-5.945,1.612-13.343,1.612-13.343-2.748,0-2.722-4.175" transform="translate(-37.655 -17.93)" fill="#79154d"/>
        <path id="Trazado_664006" data-name="Trazado 664006" d="M154.6,65.245s10.622-1.506,13.6-10.964" transform="translate(-65.555 -23.016)" fill="none" stroke="#993370" stroke-linecap="round" stroke-miterlimit="10" stroke-width="1.341"/>
        <path id="Trazado_664007" data-name="Trazado 664007" d="M177.487,64.8c0,.745-.306,1.348-.683,1.348s-.683-.6-.683-1.348.306-1.347.683-1.347.683.6.683,1.347" transform="translate(-74.679 -26.905)" fill="#79154d"/>
        <path id="Trazado_664008" data-name="Trazado 664008" d="M172.769,76.756s.555,1.744,3.607,1.981" transform="translate(-73.258 -32.546)" fill="none" stroke="#e26060" stroke-linecap="round" stroke-miterlimit="10" stroke-width="1.341"/>
        <path id="Trazado_664009" data-name="Trazado 664009" d="M81.891,163.758s-.951-3.091-2.616-3.026-2.3,2.273-2.3,2.273-.753-3.052-2.3-3.091-2.867,2.219-2.867,2.219c-.27-3.086-1.635-3.607-2.354-3.665-.765,4-1.187,6.941-1.187,6.941l15.747,2.219s.539-2.381,1.234-5.629a3.725,3.725,0,0,0-3.361,1.758" transform="translate(-28.948 -67.194)" fill="#ffc7e6"/>
        <path id="Trazado_664010" data-name="Trazado 664010" d="M240.016,67.338l-14.347-4.756-1.98,5.508c.942.464,2.482.722,4.437-.752,0,0-.277,1.823.793,2.259s3.091-1.129,3.091-1.129.119,1.922,1.229,2.438,2.378-1.348,2.378-1.348-.337,2.751,3.072,4.012c.794-3.239,1.328-6.232,1.328-6.232" transform="translate(-94.849 -26.536)" fill="#ffc7e6"/>
        <line id="Línea_226" data-name="Línea 226" y1="20.926" transform="translate(67.118 66.721)" fill="none" stroke="#ce4590" stroke-linecap="round" stroke-miterlimit="10" stroke-width="1.341"/>
        <path id="Trazado_664011" data-name="Trazado 664011" d="M169.466,127.807s15.845-.981,28.293-5.8" transform="translate(-71.857 -51.733)" fill="none" stroke="#ce4590" stroke-linecap="round" stroke-miterlimit="10" stroke-width="1.341"/>
        <path id="Trazado_664012" data-name="Trazado 664012" d="M129.373,235.291s5.5,21.56,20.5,37.836" transform="translate(-54.857 -99.768)" fill="none" stroke="#365b91" stroke-linecap="round" stroke-miterlimit="10" stroke-width="1.341"/>
        <path id="Trazado_664013" data-name="Trazado 664013" d="M58.546,295.292s11.731,17.016,46.924,20.556" transform="translate(-24.825 -125.21)" fill="none" stroke="#365b91" stroke-linecap="round" stroke-miterlimit="10" stroke-width="1.341"/>
        <path id="Trazado_664014" data-name="Trazado 664014" d="M172.769,324.68s14.922-1.835,24.239-6.071" transform="translate(-73.258 -135.097)" fill="none" stroke="#365b91" stroke-linecap="round" stroke-miterlimit="10" stroke-width="1.341"/>
        <path id="Trazado_664015" data-name="Trazado 664015" d="M76.925,186.745a30.865,30.865,0,0,0,.145,8.066" transform="translate(-32.53 -79.184)" fill="none" stroke="#e26060" stroke-linecap="round" stroke-miterlimit="10" stroke-width="0.894"/>
        <path id="Trazado_664016" data-name="Trazado 664016" d="M80.895,187.309a82.708,82.708,0,0,0-.674,8.495" transform="translate(-34.015 -79.423)" fill="none" stroke="#e26060" stroke-linecap="round" stroke-miterlimit="10" stroke-width="0.894"/>
        <path id="Trazado_664017" data-name="Trazado 664017" d="M85.464,190.336a41.881,41.881,0,0,0-.4,7.345" transform="translate(-36.048 -80.706)" fill="none" stroke="#e26060" stroke-linecap="round" stroke-miterlimit="10" stroke-width="0.894"/>
        <path id="Trazado_664018" data-name="Trazado 664018" d="M82.492,181.437a9.08,9.08,0,0,0,5.813,2.537s.1,3.656.765,4.888" transform="translate(-34.978 -76.933)" fill="none" stroke="#e26060" stroke-linecap="round" stroke-miterlimit="10" stroke-width="0.894"/>
        <path id="Trazado_664019" data-name="Trazado 664019" d="M243.963,41.9s1.9-6.009,2.272-8.175c0,0,.463-1.321,1.48-.924,0,0,.708.36.526,4.123a18.314,18.314,0,0,1-2.124,8.2" transform="translate(-103.445 -13.877)" fill="none" stroke="#e26060" stroke-linecap="round" stroke-miterlimit="10" stroke-width="0.894"/>
        <path id="Trazado_664020" data-name="Trazado 664020" d="M246.073,27.191a3,3,0,0,1,2.462.684,20.076,20.076,0,0,1,.074,2.565" transform="translate(-104.34 -11.516)" fill="none" stroke="#e26060" stroke-linecap="round" stroke-miterlimit="10" stroke-width="0.894"/>
        <path id="Trazado_664021" data-name="Trazado 664021" d="M433.414,269.812s-3.406-2.91-4.849-14.9-.542-15.185,1.012-15.219,5.951,13.211,5.951,13.211,5.475-28.641,8.963-27.479-1.162,28.959-1.162,28.959,9.105-25.674,12.365-23.9-5.221,27.175-5.221,27.175,11.033-17.861,13.147-17.227-9.941,33.608-9.941,33.608Z" transform="translate(-181.413 -95.57)" fill="#bdd4db"/>
        <g id="Grupo_1013008" data-name="Grupo 1013008" transform="translate(246.426 129.82)" opacity="0.66" style="mix-blend-mode: multiply;isolation: isolate">
          <g id="Grupo_1013007" data-name="Grupo 1013007">
            <g id="Grupo_1013006" data-name="Grupo 1013006" clip-path="url(#clip-path-13)">
              <path id="Trazado_664022" data-name="Trazado 664022" d="M433.414,269.812s-3.406-2.91-4.849-14.9-.542-15.185,1.012-15.219,5.951,13.211,5.951,13.211,5.475-28.641,8.963-27.479-1.162,28.959-1.162,28.959,9.105-25.674,12.365-23.9-5.221,27.175-5.221,27.175,11.033-17.861,13.147-17.227-9.941,33.608-9.941,33.608Z" transform="translate(-427.839 -225.39)" fill="#bdd4db"/>
            </g>
          </g>
        </g>
        <path id="Trazado_664023" data-name="Trazado 664023" d="M440.747,271.971a73.5,73.5,0,0,1-4.2-21.983c-.317-11.942,2.219-20.609,3.382-20.5s4.861,23.251,4.016,34.877l.125,8.137Z" transform="translate(-185.093 -97.306)" fill="#bdd4db"/>
        <path id="Trazado_664024" data-name="Trazado 664024" d="M463.355,283.77s14.268-29.339,18.812-30.417-7.927,26.718-14.056,31.791Z" transform="translate(-196.472 -107.414)" fill="#bdd4db"/>
        <g id="Grupo_1013011" data-name="Grupo 1013011" transform="translate(266.883 145.909)" opacity="0.44" style="mix-blend-mode: multiply;isolation: isolate">
          <g id="Grupo_1013010" data-name="Grupo 1013010">
            <g id="Grupo_1013009" data-name="Grupo 1013009" clip-path="url(#clip-path-14)">
              <path id="Trazado_664025" data-name="Trazado 664025" d="M463.355,283.77s14.268-29.339,18.812-30.417-7.927,26.718-14.056,31.791Z" transform="translate(-463.355 -253.323)" fill="#bdd4db"/>
            </g>
          </g>
        </g>
        <g id="Grupo_1013014" data-name="Grupo 1013014" transform="translate(251.426 132.179)" opacity="0.22" style="mix-blend-mode: multiply;isolation: isolate">
          <g id="Grupo_1013013" data-name="Grupo 1013013">
            <g id="Grupo_1013012" data-name="Grupo 1013012" clip-path="url(#clip-path-15)">
              <path id="Trazado_664026" data-name="Trazado 664026" d="M440.747,271.971a73.5,73.5,0,0,1-4.2-21.983c-.317-11.942,2.219-20.609,3.382-20.5s4.861,23.251,4.016,34.877l.125,8.137Z" transform="translate(-436.519 -229.485)" fill="#bdd4db"/>
            </g>
          </g>
        </g>
        <path id="Trazado_664027" data-name="Trazado 664027" d="M446.658,267s1.212-13.617,3.83-23.613,9.645-26.086,10.914-25.61-2.378,19.5-5.866,28.931S448.56,267,448.56,267Z" transform="translate(-189.392 -92.339)" fill="#bdd4db"/>
        <path id="Trazado_664028" data-name="Trazado 664028" d="M453.307,273.976s4.013-13.829,7.965-24.141,10.4-17.077,11.668-16.865-3.7,26.95-13.845,42.169Z" transform="translate(-192.212 -98.782)" fill="#bdd4db"/>
        <g id="Grupo_1013017" data-name="Grupo 1013017" transform="translate(261.095 134.182)" opacity="0.22" style="mix-blend-mode: multiply;isolation: isolate">
          <g id="Grupo_1013016" data-name="Grupo 1013016">
            <g id="Grupo_1013015" data-name="Grupo 1013015" clip-path="url(#clip-path-16)">
              <path id="Trazado_664029" data-name="Trazado 664029" d="M453.307,273.976s4.013-13.829,7.965-24.141,10.4-17.077,11.668-16.865-3.7,26.95-13.845,42.169Z" transform="translate(-453.307 -232.964)" fill="#bdd4db"/>
            </g>
          </g>
        </g>
        <path id="Trazado_664030" data-name="Trazado 664030" d="M432.314,303.58s-4.479,6.975-3.349,15.008,7.048,8.349,8.951,8.137c0,0,7.081,3.488,11.626-3.382s3.065-15.853,3.065-15.853,3.541.106,4.122-1.162.37-2.431-.951-2.748-23.568-5.284-24.308-5.284a1.83,1.83,0,0,0-1.9,1.479c-.211,1.11.846,2.854,2.748,3.8" transform="translate(-181.812 -126.484)" fill="#e1edf4"/>
        <path id="Trazado_664031" data-name="Trazado 664031" d="M435.121,327.653s-1.48,5.6,3.276,7.821" transform="translate(-184.408 -138.932)" fill="none" stroke="#c8dde8" stroke-linecap="round" stroke-miterlimit="10" stroke-width="1.341"/>
        <path id="Trazado_664032" data-name="Trazado 664032" d="M430.183,236.345l12.452-8.769,10.748,4.491s1.292-.329.405-2.266l-13.231-20.194a1.405,1.405,0,0,0-1.92-.422c-4.155,2.6-18.018,11.258-18.624,11.528-.713.318,10.169,15.633,10.169,15.633" transform="translate(-178.08 -88.608)" fill="#fda345"/>
        <path id="Trazado_664033" data-name="Trazado 664033" d="M453.674,244.324a25.462,25.462,0,0,1-3.078-4.479" transform="translate(-191.062 -101.699)" fill="none" stroke="#c1610a" stroke-linecap="round" stroke-miterlimit="10" stroke-width="1.153"/>
        <path id="Trazado_664034" data-name="Trazado 664034" d="M448.294,248.069a25.488,25.488,0,0,1-3.077-4.479" transform="translate(-188.781 -103.287)" fill="none" stroke="#c1610a" stroke-linecap="round" stroke-miterlimit="10" stroke-width="1.153"/>
        <path id="Trazado_664035" data-name="Trazado 664035" d="M443.342,251.4a25.485,25.485,0,0,1-3.077-4.479" transform="translate(-186.681 -104.701)" fill="none" stroke="#c1610a" stroke-linecap="round" stroke-miterlimit="10" stroke-width="1.153"/>
        <path id="Trazado_664036" data-name="Trazado 664036" d="M286.584,301.806,283.2,316.655l-10.992,3.858s-.74,1.109,1.216,1.955l23.347,6.149a1.4,1.4,0,0,0,1.709-.972c1.348-4.711,5.852-20.424,6.121-21.03.318-.714-18.019-4.809-18.019-4.809" transform="translate(-115.364 -127.972)" fill="#fda345"/>
        <path id="Trazado_664037" data-name="Trazado 664037" d="M439.746,152.878s1.07,6.5,1.308,8.4,3.21,1.784,3.21,1.784,1.586,3.052,2.853,3.289,3.488-1.625,3.488-1.625,3.091-1.07,3.844-2.378a6.076,6.076,0,0,0,2.5-2.724s1.387-.882.793-3.34-4.2-10.86-4.2-10.86Z" transform="translate(-186.461 -61.664)" fill="#f9c1c0"/>
        <path id="Trazado_664038" data-name="Trazado 664038" d="M255.327,48.133a5.109,5.109,0,0,1-3.061-4.051,12.9,12.9,0,0,1,.475-5.575s-2.1-3.739-1.109-6.037a60.632,60.632,0,0,1-.516-7.53c.2-1.585,2.537-1.7,2.814-1.308s.475,5.762,4.36,12.155S264,45.984,264,45.984Z" transform="translate(-106.464 -9.939)" fill="#f9c1c0"/>
        <path id="Trazado_664039" data-name="Trazado 664039" d="M302.221,161.39a39.114,39.114,0,0,0,14.374.423l40.742,1.347,5.232-1.347L343.7,115.839h-30.6Z" transform="translate(-128.148 -49.118)" fill="#e05353"/>
        <path id="Trazado_664040" data-name="Trazado 664040" d="M302.221,161.39a39.114,39.114,0,0,0,14.374.423l40.742,1.347,5.232-1.347L343.7,115.839h-30.6Z" transform="translate(-128.148 -49.118)" fill="#5e0b3c"/>
        <path id="Trazado_664041" data-name="Trazado 664041" d="M315.039,157.071l.291,2.8s-14.69,40.478-22.089,69.859a2.759,2.759,0,0,0-2.7,2.721c-.317,2.775,1.9,3.171,2.14,3.171s21.956,5.707,21.956,5.707,3.276-1.585.687-5.311L332.4,178.156s5.02,28.007,8.3,36.779,7.081,8.878,10.146,8.243,21.824-11.89,21.824-11.89.713,1.11,2.774.714,2.14-2.775,1.506-4.756-9.67-16.487-10.621-17.518a3.288,3.288,0,0,0-3.884-1.03,2.975,2.975,0,0,0-1.03,4.281l-2.616,1.03s-5.628-17.756-6.473-28.536-9.776-21.56-9.776-21.56Z" transform="translate(-123.185 -61.022)" fill="#0b2560"/>
        <path id="Trazado_664042" data-name="Trazado 664042" d="M373.828,160.152s.053,4.2,6.962,3.329" transform="translate(-158.511 -67.908)" fill="none" stroke="#365b91" stroke-linecap="round" stroke-miterlimit="10" stroke-width="1.341"/>
        <path id="Trazado_664043" data-name="Trazado 664043" d="M322.221,110.66l5.073,17.121s-2.3,2.457-1.506,4.6a2.224,2.224,0,0,0,2.7,1.586l28.773-3.647L345.631,89.787l-2.748-.37-13.21,2.241L326.1,98.373Z" transform="translate(-136.628 -37.915)" fill="#6887ce"/>
        <path id="Trazado_664044" data-name="Trazado 664044" d="M360.3,89.932s4.8,21.454,8.442,32.393a63.714,63.714,0,0,0,12.048,21.084c2.616,3.171,6.183,6.975,6.183,6.975l11.1-4.28s-8.8-10.78-9.591-13.317-6.183-23.225-6.183-23.225l14.109,2.774s7.055,14.9,9.432,16.566l14.347-7.055s-7.108-17.016-12.18-21.137-10.252-6.13-19.764-7.927-11.52-2.219-11.52-2.219-10.377-1.508-16.946-1.679Z" transform="translate(-152.552 -37.69)" fill="#79154d"/>
        <path id="Trazado_664045" data-name="Trazado 664045" d="M326.312,46.822a14.262,14.262,0,0,0,0,15.858l3.276,7.979s2.906,3.382,5.126,4.333h4.439s4.624-1.8,5.931-4.967a16.356,16.356,0,0,1-1.941-7.186s5.828-1.466,6.578-5.245c1-5.059-2.114-5.535-2.114-5.535L338.07,41.939l-9.273.713Z" transform="translate(-137.337 -17.783)" fill="#f9c1c0"/>
        <g id="Grupo_1013020" data-name="Grupo 1013020" transform="translate(207.999 36.933)" opacity="0.33" style="mix-blend-mode: multiply;isolation: isolate">
          <g id="Grupo_1013019" data-name="Grupo 1013019">
            <g id="Grupo_1013018" data-name="Grupo 1013018" clip-path="url(#clip-path-17)">
              <path id="Trazado_664046" data-name="Trazado 664046" d="M362.785,64.182s1.3-.379,1.578.758-1.378,3.761-2.587,3.347-.661-3.128,1.009-4.105" transform="translate(-361.123 -64.122)" fill="#f4807d"/>
            </g>
          </g>
        </g>
        <path id="Trazado_664047" data-name="Trazado 664047" d="M331.513,70.1s-3.372-.863-4.943,1.779-.3,5.866-.3,5.866-.951,1.216.793,3.805,12.1,1.48,14.532.316,3.3-7.556,1.044-11.466c0,0-4.733-3-8.713.18a.881.881,0,0,1-.362.181,1.893,1.893,0,0,1-2.048-.661" transform="translate(-138.14 -29.308)" fill="#fda345"/>
        <path id="Trazado_664048" data-name="Trazado 664048" d="M321.99,43.846a2.456,2.456,0,0,0-.793,2.259c.317,1.308,5.945-1.7,6.46-3.131,0,0-.2,1.466,1.545,1.308a7.73,7.73,0,0,0,3.527-1.665,1.933,1.933,0,0,0,1.546,2.259,3.541,3.541,0,0,0,2.932-.594s.582,5.641,3.963,8.019a4.285,4.285,0,0,1,3.594-1.9s1.162-8.613-5.02-10.595c0,0-3.8-2.933-11.573-1.268s-11.137,6.817-10.978,8.283,4.8-2.973,4.8-2.973" transform="translate(-134.495 -16.123)" fill="#fda345"/>
        <path id="Trazado_664049" data-name="Trazado 664049" d="M324.8,49.789a9.069,9.069,0,0,0,6.086-3.433s-.277,1.374,1.546,1.308A6.5,6.5,0,0,0,335.956,46s-.753,1.546,1.545,2.259,4.717-1.506,4.717-1.506" transform="translate(-137.72 -19.505)" fill="none" stroke="#c1610a" stroke-linecap="round" stroke-linejoin="round" stroke-width="0.894"/>
        <path id="Trazado_664050" data-name="Trazado 664050" d="M327.455,54.958a2.959,2.959,0,0,1,2.721-1.1s.059-1.059-.773-1.144a2.319,2.319,0,0,0-2.219,1.441s-.179.647.271.806" transform="translate(-138.718 -22.348)" fill="#79154d"/>
        <path id="Trazado_664051" data-name="Trazado 664051" d="M339.556,52.807s2.973-.416,4.142.753a2.047,2.047,0,0,0-1.328-1.9,4.129,4.129,0,0,0-2.576-.1s-.784.634-.238,1.248" transform="translate(-143.897 -21.795)" fill="#79154d"/>
        <path id="Trazado_664052" data-name="Trazado 664052" d="M331.141,60.852c.175.883.028,1.656-.328,1.727s-.787-.588-.962-1.471-.028-1.656.328-1.727.787.588.962,1.471" transform="translate(-139.833 -25.177)" fill="#79154d"/>
        <path id="Trazado_664053" data-name="Trazado 664053" d="M345.075,59.82c.175.883.028,1.656-.328,1.727s-.787-.588-.961-1.471-.028-1.656.328-1.727.787.588.962,1.471" transform="translate(-145.741 -24.739)" fill="#79154d"/>
        <path id="Trazado_664054" data-name="Trazado 664054" d="M336.327,62.161a3.737,3.737,0,0,1,.528,2.514,1.8,1.8,0,0,0-1.427,1.823,1.249,1.249,0,0,0,1.49,1.242" transform="translate(-142.226 -26.358)" fill="none" stroke="#e26060" stroke-linecap="round" stroke-miterlimit="10" stroke-width="1.341"/>
        <path id="Trazado_664055" data-name="Trazado 664055" d="M339.643,76.629a23.89,23.89,0,0,0,4.462-2.061.315.315,0,0,1,.408.464,6.772,6.772,0,0,1-4.752,2.278.35.35,0,0,1-.117-.68" transform="translate(-143.915 -31.597)" fill="#e26060"/>
        <path id="Trazado_664056" data-name="Trazado 664056" d="M363.5,63.545a3.678,3.678,0,0,0-2.814,3.607" transform="translate(-152.938 -26.944)" fill="none" stroke="#e26060" stroke-linecap="round" stroke-miterlimit="10" stroke-width="1.341"/>
        <path id="Trazado_664057" data-name="Trazado 664057" d="M363.481,66.588s-1.829-.5-2.358.552" transform="translate(-153.124 -28.184)" fill="none" stroke="#e26060" stroke-linecap="round" stroke-miterlimit="10" stroke-width="1.341"/>
        <path id="Trazado_664058" data-name="Trazado 664058" d="M299.693,78.879s-4.282,10.652-8.615,37.5c0,0-8.349,18.495-10.357,21.031l-1.374-.74s7.356-32.551,7.853-35.722V97.8s-17.681-3.2-22.754-6.473-11.04-17.514-12.93-26.5l14.8-5.549L272.9,75.606s14.506,2.739,18.073,3.351a35.784,35.784,0,0,0,8.72-.079" transform="translate(-106.648 -25.135)" fill="#79154d"/>
        <path id="Trazado_664059" data-name="Trazado 664059" d="M388.425,155.994a1.255,1.255,0,1,0-1.255,1.255,1.255,1.255,0,0,0,1.255-1.255" transform="translate(-163.636 -65.613)" fill="#fff0f0"/>
        <path id="Trazado_664060" data-name="Trazado 664060" d="M395.489,170.031a1.255,1.255,0,1,0-1.255,1.255,1.255,1.255,0,0,0,1.255-1.255" transform="translate(-166.631 -71.565)" fill="#fff0f0"/>
        <path id="Trazado_664061" data-name="Trazado 664061" d="M403.1,180.857a1.255,1.255,0,1,0-1.255,1.255,1.255,1.255,0,0,0,1.255-1.255" transform="translate(-169.86 -76.155)" fill="#fff0f0"/>
        <path id="Trazado_664062" data-name="Trazado 664062" d="M313.231,95.334s-3.265,7.055-2.188,20.53l-3.3,15.744" transform="translate(-130.492 -40.424)" fill="none" stroke="#59113c" stroke-linecap="round" stroke-miterlimit="10" stroke-width="1.067"/>
        <path id="Trazado_664063" data-name="Trazado 664063" d="M308.309,158.592S314.865,145.8,315.16,144c0,0,2.781-15.6,3.692-19.577" transform="translate(-130.729 -52.757)" fill="none" stroke="#59113c" stroke-linecap="round" stroke-miterlimit="10" stroke-width="1.067"/>
        <line id="Línea_227" data-name="Línea 227" x2="8.587" y2="21.269" transform="translate(159.673 34.143)" fill="none" stroke="#59113c" stroke-linecap="round" stroke-miterlimit="10" stroke-width="1.067"/>
        <path id="Trazado_664064" data-name="Trazado 664064" d="M390.874,95.059s-.634,9.67,4.6,17.121" transform="translate(-165.729 -40.307)" fill="none" stroke="#59113c" stroke-linecap="round" stroke-miterlimit="10" stroke-width="1.067"/>
        <path id="Trazado_664065" data-name="Trazado 664065" d="M385.523,168.776s7.238,11.185,11.6,14.655" transform="translate(-163.47 -71.565)" fill="none" stroke="#59113c" stroke-linecap="round" stroke-miterlimit="10" stroke-width="1.067"/>
        <line id="Línea_228" data-name="Línea 228" x2="10.535" y2="19.023" transform="translate(239.915 68.306)" fill="none" stroke="#59113c" stroke-linecap="round" stroke-miterlimit="10" stroke-width="1.067"/>
        <path id="Trazado_664066" data-name="Trazado 664066" d="M445.939,172.95s1.913,4.223,3.295,4.846" transform="translate(-189.087 -73.334)" fill="none" stroke="#e26060" stroke-linecap="round" stroke-miterlimit="10" stroke-width="0.894"/>
        <line id="Línea_229" data-name="Línea 229" x2="1.551" y2="3.25" transform="translate(262.355 99.616)" fill="none" stroke="#e26060" stroke-linecap="round" stroke-miterlimit="10" stroke-width="0.894"/>
        <line id="Línea_230" data-name="Línea 230" x2="1.44" y2="2.999" transform="translate(266.548 97.687)" fill="none" stroke="#e26060" stroke-linecap="round" stroke-miterlimit="10" stroke-width="0.894"/>
        <line id="Línea_231" data-name="Línea 231" x2="1.004" y2="1.718" transform="translate(269.296 96.128)" fill="none" stroke="#e26060" stroke-linecap="round" stroke-miterlimit="10" stroke-width="0.894"/>
        <path id="Trazado_664067" data-name="Trazado 664067" d="M257.751,44.839s-2.222-4.122-2.618-5.192-2.7-1.692-3.389-.509,1.011,5.781,1.8,6.533" transform="translate(-106.676 -16.323)" fill="none" stroke="#e26060" stroke-linecap="round" stroke-miterlimit="10" stroke-width="0.894"/>
        <path id="Trazado_664068" data-name="Trazado 664068" d="M251.36,25.111a32.054,32.054,0,0,0,.343,8.067" transform="translate(-106.534 -10.648)" fill="none" stroke="#e26060" stroke-linecap="round" stroke-miterlimit="10" stroke-width="0.894"/>
        <line id="Línea_232" data-name="Línea 232" x2="12.471" y2="3.699" transform="translate(178.934 170.928)" fill="none" stroke="#365b91" stroke-linecap="round" stroke-miterlimit="10" stroke-width="1.341"/>
        <path id="Trazado_664069" data-name="Trazado 664069" d="M335.159,169.553s3.751.13,5.442-2.683" transform="translate(-142.114 -70.756)" fill="none" stroke="#365b91" stroke-linecap="round" stroke-miterlimit="10" stroke-width="1.341"/>
        <path id="Trazado_664070" data-name="Trazado 664070" d="M351.213,168.593l.819,2.114s-1.4,11.414,1.136,15.43h4.65l1,6.208" transform="translate(-148.922 -71.487)" fill="none" stroke="#365b91" stroke-linecap="round" stroke-miterlimit="10" stroke-width="1.341"/>
        <path id="Trazado_664071" data-name="Trazado 664071" d="M360.616,167.583s-2.219,3.631-1.823,15.748" transform="translate(-152.116 -71.059)" fill="none" stroke="#365b91" stroke-linecap="round" stroke-miterlimit="10" stroke-width="1.341"/>
        <line id="Línea_233" data-name="Línea 233" x2="7.715" y2="11.705" transform="translate(238.225 131.956)" fill="none" stroke="#365b91" stroke-linecap="round" stroke-miterlimit="10" stroke-width="1.341"/>
        <path id="Trazado_664072" data-name="Trazado 664072" d="M407.927,227.772s-5.5-20.8-5.824-22.178" transform="translate(-170.5 -87.176)" fill="none" stroke="#365b91" stroke-linecap="round" stroke-miterlimit="10" stroke-width="1.341"/>
        <path id="Trazado_664073" data-name="Trazado 664073" d="M289.652,320.614a25.466,25.466,0,0,1,5.284,1.268" transform="translate(-122.818 -135.947)" fill="none" stroke="#c1610a" stroke-linecap="round" stroke-miterlimit="10" stroke-width="1.153"/>
        <path id="Trazado_664074" data-name="Trazado 664074" d="M291.142,314.231a25.479,25.479,0,0,1,5.285,1.268" transform="translate(-123.45 -133.24)" fill="none" stroke="#c1610a" stroke-linecap="round" stroke-miterlimit="10" stroke-width="1.153"/>
        <path id="Trazado_664075" data-name="Trazado 664075" d="M292.59,308.438a25.478,25.478,0,0,1,5.284,1.268" transform="translate(-124.064 -130.784)" fill="none" stroke="#c1610a" stroke-linecap="round" stroke-miterlimit="10" stroke-width="1.153"/>
        <path id="Trazado_664076" data-name="Trazado 664076" d="M24.172,96.619s-4.906.748-4.864,1.58,8.245,2.037,10.5,1.247a8.494,8.494,0,0,0,5.6,1.316A6.7,6.7,0,0,0,40.4,98.379s8.012-.082,11.4-.872a.946.946,0,0,0,.712-1.11c-.218-1.036-1.1-2.554-4.433-2.106,0,0-2.66-6.776-11.391-3.949a6.287,6.287,0,0,0-7.565,2.494s-7.317-.083-4.947,3.783" transform="translate(-8.187 -38.014)" fill="#eaeeef"/>
        <path id="Trazado_664077" data-name="Trazado 664077" d="M85.937,3.531a10.824,10.824,0,0,1,9.085,16.721l1.748,6.213-5.295-2.8A10.829,10.829,0,1,1,85.937,3.531" transform="translate(-31.846 -1.497)" fill="#adce32"/>
        <path id="Trazado_664078" data-name="Trazado 664078" d="M84.463,17.374l4.914,4.6,6.183-9.037" transform="translate(-35.814 -5.485)" fill="none" stroke="#fff" stroke-linecap="round" stroke-linejoin="round" stroke-width="3.576"/>
        <path id="Trazado_664079" data-name="Trazado 664079" d="M388.731,27.034a10.374,10.374,0,1,1,2.838,1.643l-4.822,1.911Z" transform="translate(-163.245 -3.767)" fill="#adce32"/>
        <path id="Trazado_664080" data-name="Trazado 664080" d="M393.9,23.791l4.43,4.439,5.787-8.4" transform="translate(-167.024 -8.407)" fill="none" stroke="#fff" stroke-linecap="round" stroke-linejoin="round" stroke-width="3.576"/>
        <line id="Línea_234" data-name="Línea 234" x2="280.221" transform="translate(13.779 200.797)" fill="none" stroke="#adc0c9" stroke-miterlimit="10" stroke-width="1.067"/>
      </g>
    </g>
  </g>
</svg>
