<svg xmlns="http://www.w3.org/2000/svg" xmlns:xlink="http://www.w3.org/1999/xlink" width="103" height="103" viewBox="0 0 103 103">
  <defs>
    <filter id="Elipse_4909" x="0" y="0" width="103" height="103" filterUnits="userSpaceOnUse">
      <feOffset dy="3" input="SourceAlpha"/>
      <feGaussianBlur stdDeviation="3" result="blur"/>
      <feFlood flood-opacity="0.161"/>
      <feComposite operator="in" in2="blur"/>
      <feComposite in="SourceGraphic"/>
    </filter>
  </defs>
  <g id="Grupo_1013292" data-name="Grupo 1013292" transform="translate(-486 -3784)">
    <g transform="matrix(1, 0, 0, 1, 486, 3784)" filter="url(#Elipse_4909)">
      <circle id="Elipse_4909-2" data-name="Elipse 4909" cx="42.5" cy="42.5" r="42.5" transform="translate(9 6)" fill="#0b481e"/>
    </g>
    <g id="cooperacion_1_" data-name="cooperacion (1)" transform="translate(503.444 3798.444)">
      <g id="Grupo_1013094" data-name="Grupo 1013094" transform="translate(0.136)">
        <circle id="Elipse_7770" data-name="Elipse 7770" cx="33.058" cy="33.058" r="33.058" transform="translate(0.861 0.998)" fill="#8993da"/>
        <path id="Trazado_664322" data-name="Trazado 664322" d="M48.076,72.761a33.058,33.058,0,1,1,0-64.4,33.068,33.068,0,0,0,0,64.4Z" transform="translate(-6.639 -6.505)" fill="#707dd3"/>
        <path id="Trazado_664323" data-name="Trazado 664323" d="M59.026,9.975A34.087,34.087,0,0,0,2.595,23.356c-1.123,3.407-.709,7.008-.709,10.7,0,1.059-.95,2.11-.855,3.152A34.059,34.059,0,0,0,59.026,58.137,33.8,33.8,0,0,0,68.86,37.186c.094-1.034-.19-2.079-.19-3.13a34.108,34.108,0,0,0-.838-8.9A33.861,33.861,0,0,0,59.026,9.975Zm7.962,23.084H55.946a50.408,50.408,0,0,0-3.072-16.827,34.239,34.239,0,0,0,5.4-4.161A31.816,31.816,0,0,1,66.988,33.058ZM35.942,2.04c4.613.406,8.949,3.62,12.3,9.157a33.931,33.931,0,0,1,2.138,4.182A31.841,31.841,0,0,1,35.942,19.31Zm-2,17.269a31.839,31.839,0,0,1-14.439-3.931A33.926,33.926,0,0,1,21.646,11.2C25,5.661,29.334,2.446,33.947,2.04Zm0,2V33.058H15.939a48.551,48.551,0,0,1,2.825-15.811A33.833,33.833,0,0,0,33.947,21.306Zm0,13.748V46.807a33.834,33.834,0,0,0-15.183,4.058,48.548,48.548,0,0,1-2.825-15.811Zm0,13.75V66.072c-4.613-.406-8.949-3.62-12.3-9.157a33.916,33.916,0,0,1-2.138-4.181A31.84,31.84,0,0,1,33.947,48.8Zm2,0a31.842,31.842,0,0,1,14.439,3.93,33.92,33.92,0,0,1-2.138,4.181c-3.352,5.536-7.687,8.751-12.3,9.157Zm0-2V35.054H53.95a48.55,48.55,0,0,1-2.825,15.811A33.832,33.832,0,0,0,35.942,46.807Zm0-13.748V21.306a33.832,33.832,0,0,0,15.183-4.058,48.55,48.55,0,0,1,2.825,15.81Zm20.921-22.4a32.26,32.26,0,0,1-4.753,3.695,35.709,35.709,0,0,0-2.161-4.192A24.839,24.839,0,0,0,44.026,3.3a31.841,31.841,0,0,1,12.838,7.366Zm-36.924-.5a35.7,35.7,0,0,0-2.161,4.191,32.257,32.257,0,0,1-4.752-3.695A31.842,31.842,0,0,1,25.863,3.3,24.837,24.837,0,0,0,19.939,10.164ZM11.612,12.07a34.244,34.244,0,0,0,5.4,4.161,50.41,50.41,0,0,0-3.072,16.827H2.9A31.816,31.816,0,0,1,11.612,12.07ZM2.9,35.054H13.943a50.407,50.407,0,0,0,3.072,16.828,34.25,34.25,0,0,0-5.4,4.161A31.816,31.816,0,0,1,2.9,35.054Zm10.126,22.4a32.272,32.272,0,0,1,4.752-3.694,35.692,35.692,0,0,0,2.16,4.191,24.839,24.839,0,0,0,5.924,6.868,31.843,31.843,0,0,1-12.837-7.365Zm36.923.5a35.718,35.718,0,0,0,2.16-4.191,32.256,32.256,0,0,1,4.753,3.694,31.842,31.842,0,0,1-12.837,7.365A24.839,24.839,0,0,0,49.95,57.949Zm8.327-1.907a34.236,34.236,0,0,0-5.4-4.161,50.408,50.408,0,0,0,3.072-16.828H66.988A31.815,31.815,0,0,1,58.277,56.042Z" transform="translate(-1.025)" fill="#5766cb"/>
      </g>
      <g id="Grupo_1013099" data-name="Grupo 1013099" transform="translate(0 19.334)">
        <path id="Trazado_664324" data-name="Trazado 664324" d="M413.272,145.339h13.133v18.4H413.272Z" transform="translate(-358.293 -145.338)" fill="#365e7d"/>
        <path id="Trazado_664325" data-name="Trazado 664325" d="M413.272,145.339H416.7v18.4h-3.431Z" transform="translate(-358.293 -145.338)" fill="#2b4d66"/>
        <path id="Trazado_664326" data-name="Trazado 664326" d="M413.272,245.131h13.133v5.124H413.272Z" transform="translate(-358.293 -231.855)" fill="#2b4d66"/>
        <path id="Trazado_664327" data-name="Trazado 664327" d="M0,145.34H14.746v18.4H0Z" transform="translate(0 -145.339)" fill="#ffd064"/>
        <path id="Trazado_664328" data-name="Trazado 664328" d="M0,248.831H14.746v4.632H0Z" transform="translate(0 -235.062)" fill="#ffc250"/>
        <path id="Trazado_664329" data-name="Trazado 664329" d="M54.949,145.34h7.436v18.4H54.949Z" transform="translate(-47.639 -145.339)" fill="#ffc250"/>
        <path id="Trazado_664330" data-name="Trazado 664330" d="M72.386,168.765a3.935,3.935,0,0,1-3.935-3.935V145.336H76.32v19.495A3.934,3.934,0,0,1,72.386,168.765Z" transform="translate(-59.345 -145.336)" fill="#ffd064"/>
        <path id="Trazado_664331" data-name="Trazado 664331" d="M76.323,224.707v8.936a3.935,3.935,0,0,1-7.869,0v-8.936a3.935,3.935,0,1,0,7.869,0Z" transform="translate(-59.347 -214.148)" fill="#ffc250"/>
        <g id="Grupo_1013095" data-name="Grupo 1013095" transform="translate(14.747)">
          <path id="Trazado_664332" data-name="Trazado 664332" d="M145.313,145.333l3.934,14.495L145.71,165.5l-4.618,4.619-8.214,8.215a2.95,2.95,0,0,1-4.194-4.151L126.67,176.2a2.95,2.95,0,0,1-4.188-4.157l-1.435,1.435a2.95,2.95,0,0,1-4.189-4.156l-.972.972a2.951,2.951,0,1,1-4.173-4.173l16.1-16.1-7.037-2.783a6.494,6.494,0,0,1,4.592-1.9Z" transform="translate(-110.85 -145.333)" fill="#ffece4"/>
        </g>
        <path id="Trazado_664333" data-name="Trazado 664333" d="M124.4,206.2l1.762,1.555-12.794,12.794a2.948,2.948,0,0,0-.657,3.172,2.951,2.951,0,0,1-1-4.83l1.329-1.329,2.726-4.478Z" transform="translate(-96.098 -198.098)" fill="#ffddce"/>
        <g id="Grupo_1013096" data-name="Grupo 1013096" transform="translate(34.675 19.881)">
          <path id="Trazado_664334" data-name="Trazado 664334" d="M337.865,295.513l.961.961a2.513,2.513,0,0,1-3.554,3.554l-.961-.961a2.513,2.513,0,0,1,3.554-3.554Z" transform="translate(-323.874 -294.776)" fill="#e2a770"/>
          <path id="Trazado_664335" data-name="Trazado 664335" d="M302.368,313.445l2.129,2.129a2.513,2.513,0,0,1-3.554,3.554L298.814,317a2.513,2.513,0,0,1,3.554-3.554Z" transform="translate(-293.099 -310.324)" fill="#e2a770"/>
          <path id="Trazado_664336" data-name="Trazado 664336" d="M284.435,348.942l.961.961a2.513,2.513,0,0,1-3.554,3.554l-.961-.961a2.513,2.513,0,1,1,3.554-3.554Z" transform="translate(-277.552 -341.098)" fill="#e2a770"/>
          <path id="Trazado_664337" data-name="Trazado 664337" d="M264.941,382.878a2.513,2.513,0,1,1-3.554,0A2.513,2.513,0,0,1,264.941,382.878Z" transform="translate(-260.651 -370.52)" fill="#e2a770"/>
        </g>
        <g id="Grupo_1013097" data-name="Grupo 1013097" transform="translate(34.675 20.112)">
          <path id="Trazado_664338" data-name="Trazado 664338" d="M339.334,300.811a2.513,2.513,0,0,1-4.056.719l-.961-.961a2.516,2.516,0,0,1,.721-4.058,2.512,2.512,0,0,0,.5,2.835l.961.96a2.518,2.518,0,0,0,2.832.506Z" transform="translate(-323.879 -296.511)" fill="#d5985c"/>
          <path id="Trazado_664339" data-name="Trazado 664339" d="M305,319.925a2.513,2.513,0,0,1-4.056.719l-2.129-2.129a2.513,2.513,0,0,1,.719-4.056,2.517,2.517,0,0,0,.5,2.833l2.129,2.129a2.517,2.517,0,0,0,2.833.5Z" transform="translate(-293.102 -312.071)" fill="#d5985c"/>
          <path id="Trazado_664340" data-name="Trazado 664340" d="M285.9,354.24a2.513,2.513,0,0,1-4.056.719l-.961-.96a2.516,2.516,0,0,1,.721-4.059,2.513,2.513,0,0,0,.5,2.835l.961.961a2.516,2.516,0,0,0,2.833.5Z" transform="translate(-277.554 -342.832)" fill="#d5985c"/>
          <path id="Trazado_664341" data-name="Trazado 664341" d="M265.445,387.214a2.514,2.514,0,1,1-3.336-3.339,2.515,2.515,0,0,0,3.336,3.339Z" transform="translate(-260.65 -372.253)" fill="#d5985c"/>
        </g>
        <path id="Trazado_664342" data-name="Trazado 664342" d="M150.09,159.422a3.822,3.822,0,0,1-5.406,0l-3.87-3.87-2.122-2.122-11.361,11.361.011-6.073.025-13.385h12.291a4.219,4.219,0,0,1,2.982,1.236l7.449,7.449A3.823,3.823,0,0,1,150.09,159.422Z" transform="translate(-110.392 -145.333)" fill="#e2a770"/>
        <path id="Trazado_664343" data-name="Trazado 664343" d="M149.022,194.207a3.811,3.811,0,0,1-2.7-1.121l-6.494-6.494a1.851,1.851,0,0,0-2.617,0l-.326.326-5.264,5.264a6.28,6.28,0,0,1-4.275,1.837l-.011,6.073,11.361-11.361,2.122,2.122h0l3.87,3.87a3.828,3.828,0,0,0,6.1-.944A3.823,3.823,0,0,1,149.022,194.207Z" transform="translate(-110.392 -180.633)" fill="#d5985c"/>
        <g id="Grupo_1013098" data-name="Grupo 1013098" transform="translate(19.907 18.594)">
          <path id="Trazado_664344" data-name="Trazado 664344" d="M155.88,285.1l.265.279a2.014,2.014,0,0,1-.037,2.81l-3.946,3.946a2.948,2.948,0,0,0-.657,3.172,2.951,2.951,0,0,1-1-4.83Z" transform="translate(-149.639 -285.099)" fill="#ffddce"/>
          <path id="Trazado_664345" data-name="Trazado 664345" d="M198.148,305.556l.265.279a2.014,2.014,0,0,1-.037,2.81l-3.946,3.946a2.948,2.948,0,0,0-.657,3.172,2.951,2.951,0,0,1-1-4.83Z" transform="translate(-186.284 -302.835)" fill="#ffddce"/>
          <path id="Trazado_664346" data-name="Trazado 664346" d="M244.817,321.612l.265.279a2.014,2.014,0,0,1-.037,2.81l-3.946,3.946a2.948,2.948,0,0,0-.657,3.172,2.951,2.951,0,0,1-1-4.83Z" transform="translate(-226.744 -316.755)" fill="#ffddce"/>
        </g>
        <ellipse id="Elipse_7771" data-name="Elipse 7771" cx="1.796" cy="1.796" rx="1.796" ry="1.796" transform="translate(11.245 3.155)" fill="#f9f6f9"/>
        <path id="Trazado_664347" data-name="Trazado 664347" d="M373.839,168.765a3.935,3.935,0,0,1-3.935-3.935V145.336h7.869v19.495A3.934,3.934,0,0,1,373.839,168.765Z" transform="translate(-320.694 -145.336)" fill="#365e7d"/>
        <path id="Trazado_664348" data-name="Trazado 664348" d="M377.777,224.707v8.936a3.935,3.935,0,0,1-7.869,0v-8.936a3.935,3.935,0,1,0,7.869,0Z" transform="translate(-320.698 -214.148)" fill="#2b4d66"/>
        <ellipse id="Elipse_7772" data-name="Elipse 7772" cx="1.796" cy="1.796" rx="1.796" ry="1.796" transform="translate(51.386 3.155)" fill="#f9f6f9"/>
      </g>
    </g>
  </g>
</svg>
