<svg id="Grupo_1013139" data-name="Grupo 1013139" xmlns="http://www.w3.org/2000/svg" xmlns:xlink="http://www.w3.org/1999/xlink" width="102" height="97.785" viewBox="0 0 102 97.785">
  <defs>
    <clipPath id="clip-path">
      <rect id="Rectángulo_351478" data-name="Rectángulo 351478" width="102" height="97.785" fill="#e8e8e8"/>
    </clipPath>
  </defs>
  <g id="Grupo_1013132" data-name="Grupo 1013132" clip-path="url(#clip-path)">
    <path id="Trazado_664406" data-name="Trazado 664406" d="M99.537,45.053A8.1,8.1,0,0,0,95.05,31.243L74.623,28.275A9.6,9.6,0,0,1,67.4,23.024L58.26,4.514a8.1,8.1,0,0,0-14.52,0L34.6,23.024a9.6,9.6,0,0,1-7.228,5.251L6.95,31.243a8.276,8.276,0,0,0-2.7.875A7.952,7.952,0,0,0,.414,36.753,8.274,8.274,0,0,0,0,39.563q.008.278.036.553a7.982,7.982,0,0,0,2.423,4.936L17.244,59.461A9.6,9.6,0,0,1,20,67.957L16.515,88.3a8.133,8.133,0,0,0,.145,3.491,7.917,7.917,0,0,0,1.611,3.066,8.111,8.111,0,0,0,.614.652,8.245,8.245,0,0,0,.679.579,8.371,8.371,0,0,0,1.515.92,8.041,8.041,0,0,0,3.413.776q.244,0,.487-.015a7.82,7.82,0,0,0,.962-.119,8.232,8.232,0,0,0,2.32-.815l18.27-9.605a9.6,9.6,0,0,1,8.934,0l18.27,9.605a8.451,8.451,0,0,0,1.376.577,7.873,7.873,0,0,0,2.393.372,7.991,7.991,0,0,0,3.008-.6,8.269,8.269,0,0,0,.8-.377,8.434,8.434,0,0,0,.759-.461,8.24,8.24,0,0,0,1.655-1.492,7.924,7.924,0,0,0,1.611-3.066,8.132,8.132,0,0,0,.145-3.491l-.377-2.2L81.995,67.958a9.6,9.6,0,0,1,2.761-8.5Z" transform="translate(0 -0.001)" fill="#e8e8e8"/>
  </g>
</svg>
